<svg width="622" height="460" viewBox="0 0 622 460" fill="none" xmlns="http://www.w3.org/2000/svg">
<g clip-path="url(#clip0_67_386)">
<path opacity="0.1" d="M40.7099 180.296H94.7695V254.04H44.6626C44.5347 254.803 44.4069 255.56 44.263 256.322H94.7695V315.785C94.6843 315.785 94.599 315.721 94.5191 315.689C93.0985 315.124 91.678 314.525 90.2574 313.892C89.9538 313.753 89.6554 313.61 89.3465 313.476C87.9259 312.805 86.5053 312.094 85.0848 311.344C84.5894 311.083 84.0939 310.811 83.6092 310.533C75.7227 306.13 68.555 300.546 62.3539 293.975C62.1675 293.799 61.997 293.607 61.8212 293.442C60.9582 292.504 60.1112 291.555 59.2909 290.585C58.9819 290.228 58.6836 289.865 58.3799 289.519C57.4104 288.335 56.4728 287.109 55.5672 285.877C55.4287 285.691 55.3008 285.51 55.1677 285.344C51.4578 280.207 48.3814 274.64 46.005 268.765C45.9304 268.589 45.8612 268.397 45.7919 268.232C45.0568 266.366 44.3909 264.473 43.8156 262.543C43.5705 261.738 43.3308 260.944 43.1284 260.107C43.0538 259.867 42.9952 259.622 42.9313 259.382C39.9374 247.574 39.5912 235.302 39.5912 223.088C39.5912 221.667 39.5912 220.245 39.5912 218.823C39.6338 213.837 39.6924 208.856 39.767 203.881C39.7954 202.601 39.822 201.316 39.8469 200.026C39.9214 196.76 40.028 193.487 40.1665 190.206C40.1984 189.3 40.2411 188.389 40.289 187.488C40.3103 186.965 40.337 186.443 40.3689 185.92C40.4648 184.033 40.5785 182.158 40.7099 180.296Z" fill="#BAD5F3"/>
<path opacity="0.1" d="M94.7695 98.1872H65.1134C69.9363 90.6411 75.2035 83.3887 80.887 76.4685C85.2979 71.0522 89.9431 65.7744 94.7695 60.6886V98.1872Z" fill="#BAD5F3"/>
<path opacity="0.1" d="M94.7695 100.458V178.014H40.8803C40.8803 177.79 40.9123 177.561 40.9336 177.337C40.9816 176.724 41.0295 176.116 41.0828 175.503C41.136 174.789 41.2053 174.075 41.2745 173.371C41.3438 172.667 41.4131 171.814 41.4983 171.041C41.5835 170.268 41.6528 169.485 41.738 168.712C41.8232 167.939 41.9085 167.166 42.0044 166.398C42.1003 165.63 42.1855 164.852 42.292 164.084C42.3719 163.45 42.4518 162.81 42.5424 162.17C42.6649 161.27 42.7928 160.369 42.926 159.473C42.926 159.334 42.9686 159.201 42.9899 159.068C43.9635 152.512 45.2865 146.013 46.9533 139.599C48.7036 132.871 50.9379 126.279 53.6388 119.874C56.5087 113.163 59.8704 106.673 63.6964 100.458H94.7695Z" fill="#BAD5F3"/>
<path opacity="0.1" d="M107.682 180.296V254.04H223.153V180.296H107.682ZM107.682 256.322V319.655C108.343 319.788 108.993 319.921 109.648 320.033C110.527 320.204 111.411 320.359 112.312 320.492L112.844 320.567C113.196 320.625 113.553 320.673 113.91 320.716C114.799 320.844 115.689 320.94 116.573 321.025C116.989 321.068 117.42 321.1 117.841 321.137L118.869 321.212C119.429 321.254 119.983 321.286 120.537 321.308C120.878 321.308 121.219 321.334 121.565 321.345C121.911 321.356 122.098 321.345 122.375 321.345H123.381C123.84 321.345 124.298 321.345 124.751 321.345H125.337C125.795 321.345 126.253 321.345 126.706 321.302H126.732C127.052 321.302 127.366 321.302 127.686 321.265C127.776 321.27 127.867 321.27 127.957 321.265C128.224 321.265 128.49 321.265 128.746 321.233C128.806 321.228 128.867 321.228 128.927 321.233C129.518 321.196 130.115 321.148 130.717 321.094C131.319 321.041 131.889 320.977 132.491 320.913L133.7 320.764C138.642 320.071 143.528 319.031 148.323 317.65C159.1 314.644 169.632 310.438 180.403 307.362C194.317 303.39 209.702 301.433 223.148 306.269V256.322H107.682ZM223.153 98.1873V0.0106953C210.512 -0.128483 197.906 1.34953 185.64 4.40881C156.399 11.7603 130.142 27.7055 107.682 48.0701V98.1819H113.494V100.458H107.682V178.014H223.153V100.458H137.269V98.1766L223.153 98.1873ZM371.503 65.0228C364.269 64.7669 357.077 62.4799 350.567 58.9348C338.134 52.1697 328.193 41.7101 317.092 32.8926C294.025 14.5165 265.418 3.42256 236.071 0.671745V98.1873H400.898L401.308 97.7554L371.503 65.0228ZM386.52 62.3573L402.443 79.8484V57.7566C397.084 58.4336 392.417 60.0063 386.52 62.336V62.3573ZM402.443 335.381V256.322H368.488C368.402 255.986 368.307 255.645 368.2 255.304C368.301 255.645 368.392 255.986 368.482 256.322H236.071V313.492C237.329 314.425 238.57 315.411 239.8 316.403C241.129 317.491 242.448 318.59 243.758 319.703L245.08 320.796C245.713 321.329 246.358 321.862 246.997 322.368C248.279 323.403 249.57 324.426 250.87 325.439C251.52 325.951 252.173 326.454 252.831 326.948C263.236 334.906 274.21 342.088 285.667 348.437C288.235 349.871 290.829 351.252 293.439 352.601C295.176 353.496 296.925 354.374 298.686 355.234C301.329 356.524 303.992 357.768 306.677 358.966C331.43 370.085 357.605 377.714 384.453 381.634C390.412 382.512 396.398 383.205 402.411 383.713V335.371H402.943L402.443 335.381ZM236.071 100.458V178.014H402.443V100.458H236.071ZM236.071 180.285V254.04H402.443V180.296L236.071 180.285ZM415.356 57.65V82.3327L435.673 60.0116C428.94 58.8992 422.167 58.112 415.356 57.65ZM415.356 180.296V254.04H577.167V180.296H415.356ZM576.597 341.23L577.167 256.322H415.356V384.571C425.778 385.005 436.217 384.878 446.626 384.193H446.807C451.779 383.873 456.728 383.418 461.654 382.828H461.766C488.052 379.766 513.755 372.895 538.066 362.431L576.597 341.23ZM608.384 192.408C607.77 190.987 607.139 189.565 606.493 188.143C605.289 185.478 604.021 182.887 602.71 180.301H590.085V254.04H622C621.973 233.153 616.689 211.829 608.384 192.408ZM590.085 256.322V329.357C599.072 320.737 606.674 310.869 612.14 299.589C618.719 286 621.728 271.297 621.979 256.317L590.085 256.322ZM590.085 158.807V177.998H601.528C598.059 171.401 594.24 164.995 590.085 158.807ZM480.347 72.1238C479.505 71.7986 478.658 71.4734 477.811 71.1642C468.88 67.8611 459.753 65.1157 450.483 62.9437L419.383 97.0944L418.776 97.7501L419.175 98.1819H529.862C514.445 87.5657 497.824 78.8185 480.347 72.1238ZM533.112 100.458H417.625L415.356 102.532V178.014H435.252H577.167V141.443C564.335 125.914 549.523 112.135 533.112 100.458Z" fill="#BAD5F3"/>
<path opacity="0.1" d="M94.7695 139.583V178.014H40.8803C40.8803 177.79 40.9123 177.561 40.9336 177.337C40.9816 176.724 41.0295 176.116 41.0828 175.503C41.136 174.789 41.2053 174.075 41.2745 173.371C41.3438 172.667 41.4131 171.814 41.4983 171.041C41.5835 170.268 41.6528 169.485 41.738 168.712C41.8232 167.939 41.9085 167.166 42.0044 166.398C42.1003 165.63 42.1855 164.852 42.292 164.084C42.3719 163.45 42.4518 162.81 42.5424 162.17C42.6649 161.269 42.7928 160.369 42.926 159.473C42.926 159.334 42.9686 159.201 42.9899 159.068C43.9635 152.512 45.2865 146.013 46.9533 139.599L94.7695 139.583Z" fill="#BAD5F3"/>
<path opacity="0.1" d="M40.7099 180.296H94.7695V254.04H44.6626C44.5347 254.803 44.4069 255.56 44.263 256.322H94.7695V315.785C94.6843 315.785 94.599 315.721 94.5191 315.689C93.0985 315.124 91.678 314.525 90.2574 313.892C89.9538 313.753 89.6554 313.61 89.3465 313.476C87.9259 312.805 86.5053 312.094 85.0848 311.344C84.5894 311.083 84.0939 310.811 83.6092 310.533C75.7227 306.13 68.555 300.546 62.3539 293.975C62.1675 293.799 61.997 293.607 61.8212 293.442C60.9582 292.504 60.1112 291.555 59.2909 290.585C58.9819 290.228 58.6836 289.865 58.3799 289.519C57.4104 288.335 56.4728 287.109 55.5672 285.877C55.4287 285.691 55.3008 285.51 55.1677 285.344C51.4578 280.207 48.3814 274.64 46.005 268.765C45.9304 268.589 45.8612 268.397 45.7919 268.232C45.0568 266.366 44.3909 264.473 43.8156 262.543C43.5705 261.738 43.3308 260.944 43.1284 260.107C43.0538 259.867 42.9952 259.622 42.9313 259.382C39.9374 247.574 39.5912 235.302 39.5912 223.088C39.5912 221.667 39.5912 220.245 39.5912 218.823C39.6338 213.837 39.6924 208.856 39.767 203.881C39.7954 202.601 39.822 201.316 39.8469 200.026C39.9214 196.76 40.028 193.487 40.1665 190.206C40.1984 189.3 40.2411 188.389 40.289 187.488C40.3103 186.965 40.337 186.443 40.3689 185.92C40.4648 184.033 40.5785 182.158 40.7099 180.296Z" fill="#BAD5F3"/>
<path opacity="0.1" d="M148.328 111.568V178.014H107.677V111.568H113.473V89.0712H137.264V111.568H148.328Z" fill="#BAD5F3"/>
<path opacity="0.1" d="M148.323 180.291H107.677V254.035H148.323V180.291Z" fill="#BAD5F3"/>
<path opacity="0.1" d="M107.682 256.322H148.328V317.629C143.534 319.01 138.647 320.049 133.705 320.737C133.301 320.796 132.901 320.844 132.496 320.886C131.9 320.956 131.308 321.02 130.717 321.073L128.932 321.217H128.751L127.963 321.26H127.691C127.371 321.26 127.057 321.297 126.738 321.302H126.711C126.253 321.302 125.8 321.334 125.342 321.345H124.756C124.303 321.345 123.85 321.345 123.387 321.345H122.385H121.57C121.224 321.345 120.883 321.345 120.537 321.302C119.99 321.281 119.436 321.249 118.875 321.206L117.847 321.132C117.42 321.1 116.994 321.057 116.573 321.014C115.678 320.936 114.791 320.835 113.91 320.71L112.844 320.561L112.312 320.486C111.422 320.353 110.538 320.204 109.648 320.033C108.988 319.916 108.338 319.783 107.682 319.644V256.322Z" fill="#BAD5F3"/>
<path opacity="0.1" d="M402.437 103.721H368.919V178.009H402.437V103.721Z" fill="#BAD5F3"/>
<path opacity="0.1" d="M402.443 180.291V254.04H236.071V222.23H324.688V240.995H368.919V180.291H402.443Z" fill="#BAD5F3"/>
<path opacity="0.1" d="M402.97 335.397C402.794 335.397 402.618 335.397 402.437 335.365V383.745C396.432 383.251 390.448 382.559 384.485 381.671C357.627 377.753 331.442 370.128 306.677 359.014C299.528 355.787 292.525 352.27 285.667 348.464C274.214 342.112 263.241 334.929 252.836 326.974C250.215 324.97 247.633 322.921 245.09 320.828C243.327 319.367 241.58 317.874 239.8 316.43C238.575 315.433 237.334 314.446 236.071 313.508V256.322H368.482C368.386 255.981 368.301 255.645 368.205 255.304C368.307 255.645 368.402 255.981 368.488 256.322H402.443V335.36C402.618 335.365 402.794 335.381 402.97 335.397Z" fill="#BAD5F3"/>
<path opacity="0.1" d="M489.861 98.1873H468.02V91.3955H477.805V71.1642C478.654 71.4769 479.5 71.7968 480.341 72.1238V91.3955H489.855L489.861 98.1873Z" fill="#BAD5F3"/>
<path opacity="0.1" d="M542.487 178.014H435.252C435.263 178.017 435.274 178.017 435.284 178.014H435.236H415.356V103.726H420.992V158.636H446.743V126.117H468.025V100.458H489.866V126.133H511.137V158.652H542.493L542.487 178.014Z" fill="#BAD5F3"/>
<path opacity="0.1" d="M415.356 180.296V254.04H542.493V180.296H415.356ZM576.986 340.84L577.167 282.466H542.493V256.343H415.356V384.571C425.778 385.005 436.217 384.878 446.626 384.193H446.807C451.779 383.873 456.728 383.418 461.654 382.828H461.766C488.052 379.766 513.755 372.895 538.066 362.431" fill="#BAD5F3"/>
<path opacity="0.1" d="M592.323 256.322H621.979C621.723 271.297 618.719 286.005 612.14 299.589C606.674 310.875 599.072 320.742 590.085 329.363V282.449H592.323V256.322Z" fill="#BAD5F3"/>
<path opacity="0.1" d="M622 254.04H592.323V192.408H608.384C616.689 211.829 621.973 233.153 622 254.04Z" fill="#BAD5F3"/>
<path opacity="0.1" d="M402.443 124.373H384.485V147.665H402.443V124.373Z" fill="#BAD5F3"/>
<path opacity="0.1" d="M402.443 172.651H384.485V178.014H402.443V172.651Z" fill="#BAD5F3"/>
<path opacity="0.1" d="M402.443 180.291H384.485V195.937H402.443V180.291Z" fill="#BAD5F3"/>
<path opacity="0.1" d="M402.443 220.929H384.485V244.221H402.443V220.929Z" fill="#BAD5F3"/>
<path opacity="0.1" d="M402.443 269.207H384.485V292.498H402.443V269.207Z" fill="#BAD5F3"/>
<path opacity="0.1" d="M402.443 335.36C402.618 335.36 402.794 335.36 402.975 335.397C402.8 335.397 402.624 335.397 402.443 335.365V340.776H384.485V317.485H402.443V335.36Z" fill="#BAD5F3"/>
<path opacity="0.1" d="M402.443 365.758V383.745C396.434 383.251 390.448 382.559 384.485 381.671V365.758H402.443Z" fill="#BAD5F3"/>
<path opacity="0.1" d="M313.032 252.329H236.071V254.04H313.032V252.329Z" fill="#BAD5F3"/>
<path opacity="0.1" d="M313.032 256.317H236.071V262.874H313.032V256.317Z" fill="#BAD5F3"/>
<path opacity="0.1" d="M313.032 284.369H236.071V294.914H313.032V284.369Z" fill="#BAD5F3"/>
<path opacity="0.1" d="M313.032 316.408V326.953H252.836C250.215 324.956 247.633 322.905 245.09 320.801C243.322 319.346 241.574 317.853 239.8 316.408H313.032Z" fill="#BAD5F3"/>
<path opacity="0.1" d="M313.032 348.443V359.014H306.677C299.528 355.787 292.525 352.27 285.667 348.464L313.032 348.443Z" fill="#BAD5F3"/>
<path opacity="0.1" d="M461.776 187.44H446.626V202.601H461.776V187.44Z" fill="#BAD5F3"/>
<path opacity="0.1" d="M133.743 116.798H118.592V131.959H133.743V116.798Z" fill="#BAD5F3"/>
<path opacity="0.1" d="M133.743 152.015H118.592V167.176H133.743V152.015Z" fill="#BAD5F3"/>
<path opacity="0.1" d="M133.743 187.232H118.592V202.393H133.743V187.232Z" fill="#BAD5F3"/>
<path opacity="0.1" d="M133.743 222.443H118.592V237.605H133.743V222.443Z" fill="#BAD5F3"/>
<path opacity="0.1" d="M133.743 257.66H118.592V272.822H133.743V257.66Z" fill="#BAD5F3"/>
<path opacity="0.1" d="M133.743 292.877H118.592V308.038H133.743V292.877Z" fill="#BAD5F3"/>
<path opacity="0.1" d="M519.613 187.44H504.462V202.601H519.613V187.44Z" fill="#BAD5F3"/>
<path opacity="0.1" d="M461.776 224.837H446.626V239.998H461.776V224.837Z" fill="#BAD5F3"/>
<path opacity="0.1" d="M519.613 224.837H504.462V239.998H519.613V224.837Z" fill="#BAD5F3"/>
<path opacity="0.1" d="M461.776 262.229H446.626V277.39H461.776V262.229Z" fill="#BAD5F3"/>
<path opacity="0.1" d="M519.613 262.229H504.462V277.39H519.613V262.229Z" fill="#BAD5F3"/>
<path opacity="0.1" d="M461.776 299.626H446.626V314.788H461.776V299.626Z" fill="#BAD5F3"/>
<path opacity="0.1" d="M519.613 299.626H504.462V314.788H519.613V299.626Z" fill="#BAD5F3"/>
<path opacity="0.1" d="M461.776 337.023H446.626V352.185H461.776V337.023Z" fill="#BAD5F3"/>
<path opacity="0.1" d="M519.613 337.023H504.462V352.185H519.613V337.023Z" fill="#BAD5F3"/>
<path opacity="0.1" d="M446.626 384.193V374.415H461.771V382.801L446.626 384.193Z" fill="#BAD5F3"/>
<path opacity="0.1" d="M42.9259 159.052V167.725H94.7695V159.052H42.9259ZM48.0879 167.182H43.8262V159.601H48.0879V167.182ZM53.2499 167.182H48.9882V159.601H53.2499V167.182ZM58.4012 167.182H54.1395V159.601H58.4012V167.182ZM63.5632 167.182H59.3015V159.601H63.5632V167.182ZM68.7199 167.182H64.4582V159.601H68.7199V167.182ZM73.8818 167.182H69.6201V159.601H73.8818V167.182ZM79.0438 167.182H74.7821V159.601H79.0438V167.182ZM84.2005 167.182H79.9388V159.601H84.2005V167.182ZM89.3571 167.182H85.0954V159.601H89.3571V167.182ZM94.5191 167.182H90.2574V159.601H94.5191V167.182Z" fill="#BAD5F3"/>
<path opacity="0.1" d="M42.9259 184.3V192.973H94.7695V184.3H42.9259ZM48.0879 192.429H43.8262V184.849H48.0879V192.429ZM53.2499 192.429H48.9882V184.849H53.2499V192.429ZM58.4012 192.429H54.1395V184.849H58.4012V192.429ZM63.5632 192.429H59.3015V184.849H63.5632V192.429ZM68.7199 192.429H64.4582V184.849H68.7199V192.429ZM73.8818 192.429H69.6201V184.849H73.8818V192.429ZM79.0438 192.429H74.7821V184.849H79.0438V192.429ZM84.2005 192.429H79.9388V184.849H84.2005V192.429ZM89.3571 192.429H85.0954V184.849H89.3571V192.429ZM94.5191 192.429H90.2574V184.849H94.5191V192.429Z" fill="#BAD5F3"/>
<path opacity="0.1" d="M42.9259 209.553V218.221H94.7695V209.553H42.9259ZM48.0879 217.672H43.8262V210.091H48.0879V217.672ZM53.2499 217.672H48.9882V210.091H53.2499V217.672ZM58.4012 217.672H54.1395V210.091H58.4012V217.672ZM63.5632 217.672H59.3015V210.091H63.5632V217.672ZM68.7199 217.672H64.4582V210.091H68.7199V217.672ZM73.8818 217.672H69.6201V210.091H73.8818V217.672ZM79.0438 217.672H74.7821V210.091H79.0438V217.672ZM84.2005 217.672H79.9388V210.091H84.2005V217.672ZM89.3571 217.672H85.0954V210.091H89.3571V217.672ZM94.5191 217.672H90.2574V210.091H94.5191V217.672Z" fill="#BAD5F3"/>
<path opacity="0.1" d="M42.9259 234.801V243.469H94.7695V234.801H42.9259ZM48.0879 242.925H43.8262V235.334H48.0879V242.925ZM53.2499 242.925H48.9882V235.334H53.2499V242.925ZM58.4012 242.925H54.1395V235.334H58.4012V242.925ZM63.5632 242.925H59.3015V235.334H63.5632V242.925ZM68.7199 242.925H64.4582V235.334H68.7199V242.925ZM73.8818 242.925H69.6201V235.334H73.8818V242.925ZM79.0438 242.925H74.7821V235.334H79.0438V242.925ZM84.2005 242.925H79.9388V235.334H84.2005V242.925ZM89.3571 242.925H85.0954V235.334H89.3571V242.925ZM94.5191 242.925H90.2574V235.334H94.5191V242.925Z" fill="#BAD5F3"/>
<path opacity="0.1" d="M43.1763 260.038C43.3787 260.859 43.6185 261.669 43.8635 262.474V260.587H48.1252V268.162H45.8399C45.9038 268.344 45.9731 268.53 46.0476 268.695H94.7908V260.038H43.1763ZM53.2978 268.162H49.0362V260.587H53.2978V268.162ZM58.4492 268.162H54.1875V260.587H58.4492V268.162ZM63.6112 268.162H59.3495V260.587H63.6112V268.162ZM68.7678 268.162H64.5061V260.587H68.7678V268.162ZM73.9298 268.162H69.6681V260.587H73.9298V268.162ZM79.0918 268.162H74.8301V260.587H79.0918V268.162ZM84.2484 268.162H79.9867V260.587H84.2484V268.162ZM89.4051 268.162H85.1434V260.587H89.4051V268.162ZM94.5671 268.162H90.3054V260.587H94.5671V268.162Z" fill="#BAD5F3"/>
<path opacity="0.1" d="M55.1837 285.286C55.3222 285.456 55.45 285.648 55.5832 285.819H58.4012V289.46L59.3122 290.526V285.797H63.5739V293.442H61.8212C61.9917 293.618 62.1569 293.805 62.354 293.975H94.7588V285.286H55.1837ZM68.7465 293.442H64.4848V285.829H68.7465V293.442ZM73.9085 293.442H69.6468V285.829H73.9085V293.442ZM79.0705 293.442H74.8088V285.829H79.0705V293.442ZM84.2271 293.442H79.9654V285.829H84.2271V293.442ZM89.3838 293.442H85.1221V285.829H89.3838V293.442ZM94.5457 293.442H90.284V285.829H94.5457V293.442Z" fill="#BAD5F3"/>
<path opacity="0.1" d="M83.6252 310.533C84.1152 310.811 84.6107 311.067 85.1061 311.338V311.072H89.3678V313.476C89.6768 313.609 89.9698 313.753 90.2734 313.892V311.072H94.5351V315.689C94.6161 315.725 94.6998 315.755 94.7855 315.779V310.533H83.6252Z" fill="#BAD5F3"/>
<path opacity="0.1" d="M402.437 335.36H402.97H402.437ZM368.2 255.304C368.301 255.645 368.392 255.986 368.482 256.322C368.402 255.986 368.306 255.645 368.2 255.304ZM113.494 98.1872V100.458H137.291V98.1765L113.494 98.1872ZM402.443 335.36H402.975H402.443ZM368.2 255.304C368.301 255.645 368.392 255.986 368.482 256.322C368.402 255.986 368.306 255.645 368.2 255.304ZM402.437 335.36H402.97H402.437ZM368.2 255.304C368.301 255.645 368.392 255.986 368.482 256.322C368.402 255.986 368.306 255.645 368.2 255.304Z" fill="#BAD5F3"/>
<path opacity="0.1" d="M468.483 460C497.151 460 520.39 456.265 520.39 451.657C520.39 447.049 497.151 443.314 468.483 443.314C439.815 443.314 416.576 447.049 416.576 451.657C416.576 456.265 439.815 460 468.483 460Z" fill="#BAD5F3"/>
<path opacity="0.1" d="M234.377 451.657C263.045 451.657 286.285 447.922 286.285 443.314C286.285 438.706 263.045 434.971 234.377 434.971C205.71 434.971 182.47 438.706 182.47 443.314C182.47 447.922 205.71 451.657 234.377 451.657Z" fill="#BAD5F3"/>
<path d="M294.137 222.704C294.124 222.652 294.096 222.603 294.057 222.566C293.263 221.782 283.142 207.458 283.142 207.458C283.142 207.458 282.609 205.858 281.746 203.779C282.023 203.421 282.23 203.014 282.359 202.58C282.405 202.396 282.439 202.209 282.46 202.02C282.46 201.961 282.503 201.913 282.519 201.855C282.704 201.132 282.685 200.372 282.465 199.658C282.406 199.841 282.333 200.02 282.247 200.191C282.046 199.57 281.778 198.973 281.448 198.411C280.105 196.097 278.188 194.146 276.776 191.891C274.638 188.387 273.789 184.247 274.373 180.184C274.373 180.392 274.373 180.605 274.373 180.813C274.427 180.007 274.534 179.206 274.693 178.414C274.916 177.513 275.213 176.632 275.583 175.781C276.85 172.875 278.901 170.343 280.148 167.427C280.566 166.443 280.884 165.42 281.096 164.372C281.535 162.622 281.695 160.814 281.57 159.014C281.57 159.441 281.501 159.867 281.437 160.289C281.302 155.961 279.556 151.841 276.541 148.736C272.189 144.359 265.941 142.659 259.964 141.763C257.452 141.47 255.053 140.554 252.985 139.098C250.689 137.61 247.722 137.253 245.037 137.578C241.951 137.912 239.084 139.331 236.945 141.582C234.106 144.706 232.875 149.131 229.562 151.764C227.553 153.364 225.007 154.11 222.668 155.197C220.33 156.285 218.119 157.863 217.368 160.198C217.368 160.198 217.368 160.166 217.368 160.15V160.283L217.336 160.369C216.558 163.13 218.06 165.939 218.843 168.696C219.659 171.548 219.712 174.56 219.754 177.508C219.813 181.112 219.866 184.721 219.808 188.33C219.781 189.748 219.733 191.182 219.627 192.595C218.366 192.976 217.141 193.469 215.967 194.066C214.774 194.844 210.309 199.669 210.309 199.669L201.578 233.052L201.695 233.185L201.578 233.638L202.02 233.537C203.256 234.87 206.948 238.666 210.933 241.033L211.306 247.579C211.306 247.579 211.753 254.147 217.789 256.86C217.927 259.137 218.359 268.381 216.361 272.043C214.978 274.719 214.327 277.713 214.475 280.722C214.475 280.722 215.173 286.277 214.379 289.199C213.916 291.151 213.881 293.181 214.278 295.148C214.278 295.148 214.278 295.793 214.278 296.902C214.278 302.814 214.347 321.761 214.278 323.904C214.177 326.436 214.278 363.887 214.278 363.887C214.278 363.887 213.783 382.604 212.195 387.674C210.608 392.744 211.007 409.531 211.007 409.531C211.007 409.531 210.011 429.528 213.532 433.473C213.532 433.649 213.5 433.83 213.495 434.006C213.495 434.086 213.495 434.176 213.495 434.256C213.452 435.776 213.745 437.391 215.051 437.887C217.714 438.91 221.235 441.981 221.901 442.861C222.567 443.74 226.44 445.931 231.49 445.345C234.654 444.989 237.837 444.843 241.02 444.908C241.02 444.908 243.013 444.545 242.368 442.066C241.953 440.52 240.397 438.143 239.289 436.581C239.491 436.634 239.688 436.677 239.875 436.714L240.067 436.751H240.216C240.297 436.756 240.379 436.756 240.461 436.751H240.567C240.667 436.759 240.767 436.759 240.866 436.751C242.203 436.623 247.189 438.948 248.079 440.483C248.968 442.018 252.106 443.186 254.471 443.479C255.878 443.65 259.425 443.362 262.403 442.978C263.903 442.823 265.388 442.552 266.846 442.168C267.549 441.901 267.698 441.048 267.496 440.089C267.257 438.87 266.606 437.771 265.653 436.975C264.79 436.362 263.65 434.747 262.808 433.425L262.584 433.068C264.071 431.65 266.756 427.012 267.571 426.052C268.561 424.884 265.972 382.188 265.972 382.188V360.784L269.941 340.526L272.717 329.805L275.098 313.62C275.098 313.62 279.264 294.716 277.98 292.861C277.98 292.824 276.914 273.36 275.796 268.685C275.311 266.6 275.433 261.909 275.721 257.346C276.022 257.047 276.231 256.669 276.326 256.255C276.42 255.842 276.395 255.41 276.254 255.011C276.174 254.737 276.071 254.471 275.945 254.216C275.945 254.136 275.945 254.051 275.945 253.971C278.246 252.911 280.651 252.093 283.12 251.529C287.089 250.751 286.098 248.704 286.098 248.704C286.098 248.704 286.993 246.95 287.585 245.879C288.176 244.807 287.686 235.35 287.585 234.571C287.547 234.257 287.302 232.519 287.02 230.546C288.293 229.64 289.95 228.515 291.756 227.449C295.192 225.413 294.419 223.264 294.137 222.704ZM242.357 357.863C242.357 357.863 239.38 365.465 240.573 367.41C241.766 369.356 240.376 376.58 240.376 376.58L239.38 387.301C239.38 387.301 236.604 407.185 237.595 411.861C238.373 415.528 238.66 426.484 238.751 431.052C238.683 431.079 238.617 431.111 238.554 431.148L238.421 431.218C238.879 429.421 238.687 425.785 236.412 418.471L236.221 388.26C236.221 388.26 235.869 353.363 238.623 349.461C241.377 345.558 242.352 338.932 242.352 338.932C242.352 338.932 241.755 348.491 241.367 351.023C240.978 353.555 242.357 357.863 242.357 357.863ZM236.812 432.956C236.785 433.02 236.753 433.084 236.732 433.142L236.583 432.95C236.659 432.958 236.735 432.959 236.812 432.956Z" fill="url(#paint0_linear_67_386)"/>
<path d="M267.182 444.929C265.642 445.521 257.295 446.529 254.961 446.246C252.628 445.963 249.538 444.78 248.659 443.234C247.78 441.688 242.853 439.353 241.532 439.502C240.99 439.518 240.45 439.443 239.934 439.278C239.022 439.002 238.132 438.66 237.27 438.255C237.15 437.583 237.17 436.893 237.329 436.229C237.359 436.095 237.398 435.963 237.446 435.834C237.757 434.96 238.4 434.243 239.236 433.841L239.427 433.75C239.797 433.59 240.183 433.472 240.578 433.398C244.765 432.593 262.041 434.208 262.041 434.208C262.041 434.208 262.526 435.077 263.192 436.154C264.023 437.487 265.152 439.113 266.004 439.726C266.949 440.534 267.589 441.64 267.821 442.861C268.023 443.804 267.874 444.668 267.182 444.929Z" fill="white"/>
<path opacity="0.1" d="M267.182 444.929C265.642 445.521 257.3 446.529 254.967 446.246C252.633 445.963 249.544 444.775 248.659 443.234C247.775 441.693 242.858 439.353 241.537 439.502C240.216 439.651 237.275 438.255 237.275 438.255C237.275 438.255 236.817 436.122 238.149 434.667L240.813 436.559C240.813 436.559 247.94 438.772 249.261 440.824C250.582 442.877 252.99 444.023 256.469 444.231C259.069 444.401 265.04 443.389 267.837 442.882C268.023 443.804 267.88 444.668 267.182 444.929Z" fill="black"/>
<path d="M241.681 447.648C238.539 447.587 235.396 447.735 232.273 448.09C227.271 448.677 223.451 446.491 222.786 445.59C222.12 444.689 218.673 441.645 216.025 440.579C214.731 440.078 214.427 438.447 214.486 436.922C214.486 436.842 214.486 436.751 214.486 436.671C214.535 435.706 214.678 434.747 214.912 433.809L235.64 433.366L237.435 435.802L237.712 436.176L238.804 437.663C238.804 437.663 239.3 438.313 239.95 439.262C241.047 440.862 242.581 443.223 242.991 444.785C243.647 447.285 241.681 447.648 241.681 447.648Z" fill="white"/>
<path opacity="0.1" d="M241.681 447.648C238.539 447.587 235.396 447.735 232.273 448.091C227.276 448.677 223.451 446.491 222.791 445.59C222.13 444.689 218.673 441.619 216.025 440.59C214.731 440.089 214.427 438.457 214.486 436.933C215.967 437.279 219.078 438.164 220.298 439.705C221.896 441.763 224.757 445.222 228.821 445.441C232.103 445.617 240.093 445.03 243.023 444.796C243.652 447.286 241.681 447.648 241.681 447.648Z" fill="black"/>
<path opacity="0.1" d="M239.214 433.819C238.975 435.6 238.234 436.08 237.701 436.186C237.571 436.212 237.437 436.212 237.307 436.186C237.237 436.181 237.168 436.17 237.1 436.154C237.1 436.154 218.487 440.27 214.726 436.938C214.63 436.852 214.541 436.76 214.459 436.661C214.508 435.695 214.651 434.736 214.885 433.798L235.613 433.355L237.408 435.792C237.719 434.917 238.363 434.201 239.198 433.798L239.214 433.819Z" fill="black"/>
<path opacity="0.1" d="M263.186 436.133C262.771 436.591 262.425 436.853 262.206 436.762C261.226 436.367 253.193 434.997 250.641 436.176C248.089 437.354 239.454 436.367 239.454 436.367C239.454 436.367 239.454 435.344 239.406 433.702C239.775 433.542 240.161 433.424 240.557 433.35C244.744 432.545 262.02 434.16 262.02 434.16C262.02 434.16 262.526 435.056 263.186 436.133Z" fill="black"/>
<path d="M275.343 315.545L272.988 331.826L270.25 342.616L266.329 363.012V384.603C266.329 384.603 268.876 427.561 267.896 428.733C266.915 429.906 263.192 436.586 262.212 436.197C261.231 435.808 253.198 434.432 250.646 435.605C248.095 436.778 239.459 435.802 239.459 435.802C239.459 435.802 239.262 419.132 238.282 414.425C237.302 409.717 240.045 389.71 240.045 389.71L241.026 378.925C241.026 378.925 242.4 371.664 241.223 369.703C240.045 367.741 242.986 360.107 242.986 360.107C242.986 360.107 241.617 355.783 242.011 353.235C242.405 350.687 242.986 341.075 242.986 341.075C242.986 341.075 242.011 347.749 239.289 351.668C236.567 355.586 236.913 390.702 236.913 390.702L237.105 421.089C242.011 437.178 237.105 435.605 237.105 435.605C237.105 435.605 218.492 439.726 214.731 436.389C210.97 433.051 212.046 412.047 212.046 412.047C212.046 412.047 211.657 395.18 213.223 390.083C214.79 384.987 215.285 366.152 215.285 366.152C215.285 366.152 215.184 328.488 215.285 325.945C215.36 323.813 215.285 304.723 215.285 298.757C215.285 297.648 215.285 296.993 215.285 296.993L217.533 291.406L244.169 288.068H256.911C256.911 288.068 276.089 292.578 278.07 294.524C278.113 294.557 278.149 294.596 278.177 294.642C279.461 296.523 275.343 315.545 275.343 315.545Z" fill="#BAD5F3"/>
<path opacity="0.1" d="M243.002 401.065C243.002 401.065 248.862 415.187 251.627 416.168C254.391 417.149 243.002 401.065 243.002 401.065Z" fill="black"/>
<path opacity="0.1" d="M245.17 421.856C245.17 421.856 264.955 422.837 264.758 424.996C264.561 427.155 245.17 421.856 245.17 421.856Z" fill="black"/>
<path opacity="0.1" d="M218.7 416.211C219.483 416.952 233.791 418.343 232.614 419.697C231.437 421.051 219.877 423.685 219.877 423.685L218.7 416.211Z" fill="black"/>
<path opacity="0.1" d="M216.35 391.848C216.35 392.434 219.291 410.677 220.079 411.461C220.868 412.244 227.33 413.028 227.33 413.028L216.35 391.848Z" fill="black"/>
<path d="M237.685 142.494C234.878 145.634 233.664 150.085 230.393 152.74C228.406 154.339 225.891 155.101 223.579 156.189C221.267 157.277 218.977 158.934 218.289 161.397C217.522 164.17 219.003 167 219.781 169.772C220.585 172.641 220.633 175.637 220.681 178.638C220.735 182.268 220.793 185.899 220.729 189.529C220.633 195.186 220.165 201.103 217.165 205.896C227.995 209.345 239.513 209.814 250.87 210.256C253.053 210.412 255.245 210.357 257.417 210.091C259.299 209.716 261.161 209.244 262.995 208.678C266.62 207.718 270.357 207.24 274.107 207.255C275.742 207.255 277.41 207.356 278.987 206.93C280.563 206.503 282.082 205.411 282.508 203.833C282.886 202.414 282.332 200.906 281.608 199.632C280.286 197.307 278.411 195.367 276.994 193.075C275.548 190.653 274.69 187.926 274.489 185.112C274.288 182.298 274.75 179.476 275.838 176.873C277.096 173.947 279.12 171.398 280.356 168.466C281.622 165.318 281.958 161.873 281.326 158.539C280.693 155.205 279.118 152.123 276.787 149.658C272.488 145.255 266.319 143.549 260.416 142.643C257.931 142.349 255.56 141.432 253.523 139.977C251.259 138.485 248.324 138.122 245.671 138.453C242.61 138.796 239.776 140.23 237.685 142.494Z" fill="#3F3D56"/>
<g opacity="0.1">
<path opacity="0.1" d="M276.003 173.797C274.917 176.366 274.452 179.155 274.645 181.938C274.764 179.948 275.224 177.993 276.003 176.159C277.255 173.232 279.28 170.684 280.516 167.752C281.526 165.304 281.951 162.653 281.757 160.011C281.647 161.863 281.227 163.683 280.516 165.396C279.28 168.328 277.255 170.871 276.003 173.797Z" fill="black"/>
<path opacity="0.1" d="M220.841 177.913C220.873 180.003 220.905 182.098 220.91 184.188C220.91 181.309 220.884 178.435 220.841 175.562C220.799 172.582 220.745 169.565 219.941 166.691C219.408 164.868 218.62 163.018 218.343 161.179C217.869 163.791 219.216 166.441 219.941 169.047C220.745 171.894 220.799 174.933 220.841 177.913Z" fill="black"/>
<path opacity="0.1" d="M279.168 203.88C277.57 204.312 275.929 204.216 274.293 204.206C270.546 204.182 266.812 204.651 263.186 205.602C261.352 206.166 259.491 206.636 257.609 207.01C255.436 207.28 253.241 207.337 251.057 207.18C240.083 206.749 228.954 206.285 218.444 203.145C218.132 203.842 217.776 204.519 217.379 205.171C228.209 208.614 239.726 209.089 251.078 209.531C253.262 209.688 255.457 209.631 257.63 209.361C259.505 208.99 261.36 208.522 263.186 207.959C266.804 207.004 270.531 206.529 274.272 206.546C275.908 206.546 277.57 206.647 279.146 206.215C280.723 205.784 282.242 204.701 282.668 203.123C282.847 202.393 282.829 201.627 282.614 200.906C282.14 202.398 280.675 203.438 279.168 203.88Z" fill="black"/>
</g>
<path d="M263.389 197.563C262.995 198.448 261.333 206.093 260.938 206.877C260.544 207.66 258.392 220.204 258.195 220.908C257.998 221.612 244.009 217.965 244.009 217.965L235.587 210.901L226.93 202.281C226.93 202.281 226.674 194.503 233.051 192.008C233.484 191.838 233.929 191.699 234.383 191.592C242.118 189.732 241.34 166.195 241.34 166.195L257.215 173.056C257.215 173.056 254.274 186.789 254.375 189.439C254.402 190.329 255.1 190.883 256.011 191.219C257.419 191.62 258.886 191.779 260.347 191.688C260.347 191.688 263.783 196.684 263.389 197.563Z" fill="#FBBEBE"/>
<path d="M291.809 223.355L294.062 223.947C294.062 223.947 295.73 226.484 291.809 228.846C289.319 230.359 286.93 232.031 284.655 233.852L273.068 237.381L270.836 230.371L281.618 222.182L291.809 223.355Z" fill="#BAD5F3"/>
<path opacity="0.1" d="M291.809 223.355L294.062 223.947C294.062 223.947 295.73 226.484 291.809 228.846C289.319 230.359 286.93 232.031 284.655 233.852L273.068 237.381L270.836 230.371L281.618 222.182L291.809 223.355Z" fill="black"/>
<path d="M207.252 230.125L202.745 234.539C202.745 234.539 210.874 243.954 217.128 244.54C223.382 245.127 227.415 237.381 227.415 237.381L222.002 228.851L207.252 230.125Z" fill="#BAD5F3"/>
<path opacity="0.1" d="M207.252 230.125L202.745 234.539C202.745 234.539 210.874 243.954 217.128 244.54C223.382 245.127 227.415 237.381 227.415 237.381L222.002 228.851L207.252 230.125Z" fill="black"/>
<path opacity="0.1" d="M250.06 181.575C258.719 181.575 265.738 174.551 265.738 165.886C265.738 157.221 258.719 150.197 250.06 150.197C241.402 150.197 234.383 157.221 234.383 165.886C234.383 174.551 241.402 181.575 250.06 181.575Z" fill="black"/>
<path d="M250.06 180.397C258.719 180.397 265.738 173.373 265.738 164.708C265.738 156.043 258.719 149.019 250.06 149.019C241.402 149.019 234.383 156.043 234.383 164.708C234.383 173.373 241.402 180.397 250.06 180.397Z" fill="#FBBEBE"/>
<path opacity="0.1" d="M278.188 296.422C274.618 296.831 271.102 297.619 267.698 298.773C261.839 300.724 215.919 298.805 215.28 298.773C215.28 297.664 215.28 297.009 215.28 297.009L217.528 291.422L244.163 288.084H256.906C256.906 288.084 276.083 292.595 278.065 294.54C278.145 295.713 278.188 296.422 278.188 296.422Z" fill="black"/>
<path opacity="0.1" d="M263.389 197.563C262.995 198.448 261.333 206.093 260.938 206.877C260.544 207.66 258.392 220.204 258.195 220.908C257.998 221.612 244.009 217.965 244.009 217.965L235.587 210.902L226.93 202.281C226.93 202.281 226.674 194.503 233.051 192.008L248.883 210.225L256.011 191.219C257.419 191.62 258.886 191.779 260.347 191.688C260.347 191.688 263.783 196.684 263.389 197.563Z" fill="black"/>
<path d="M248.883 210.811L232.678 192.152C231.729 191.546 230.645 191.186 229.523 191.103C228.401 191.02 227.275 191.218 226.248 191.678C222.62 193.25 218.114 194.525 216.936 195.308C215.759 196.092 211.348 200.943 211.348 200.943L224.485 235.334L218.7 257.985C218.7 257.985 219.584 269.559 217.331 273.776C215.959 276.472 215.316 279.481 215.466 282.503C215.466 282.503 216.153 288.095 215.37 291.033C214.913 292.997 214.878 295.036 215.269 297.014C215.269 297.014 261.823 298.976 267.698 297.014C271.101 295.857 274.617 295.068 278.188 294.663C278.188 294.663 277.122 275.045 276.057 270.337C274.991 265.63 276.941 247.686 276.941 247.686L275.668 228.462L283.307 208.737C283.307 208.737 279.168 196.092 274.853 194.818C274.853 194.818 267.017 192.952 265.349 192.072C263.682 191.193 258.781 190.404 258.781 190.404L256.208 191.267L248.883 210.811Z" fill="#BAD5F3"/>
<path opacity="0.1" d="M271.493 227.813L237.393 225.492C236.53 225.434 235.782 226.086 235.724 226.95L232.063 280.829C232.004 281.693 232.656 282.44 233.519 282.499L267.619 284.819C268.482 284.878 269.229 284.226 269.288 283.362L272.949 229.483C273.008 228.619 272.356 227.872 271.493 227.813Z" fill="black"/>
<path d="M272.667 226.643L238.567 224.322C237.704 224.264 236.957 224.916 236.898 225.78L233.237 279.659C233.178 280.522 233.83 281.27 234.693 281.329L268.793 283.649C269.656 283.708 270.404 283.055 270.462 282.192L274.123 228.313C274.182 227.449 273.53 226.701 272.667 226.643Z" fill="#3F3D56"/>
<path d="M271.542 230.866L239.11 228.659L235.777 277.709L268.209 279.916L271.542 230.866Z" fill="white"/>
<path opacity="0.1" d="M268.634 243.386L242.142 241.53L241.625 248.919L268.117 250.775L268.634 243.386Z" fill="black"/>
<path opacity="0.1" d="M267.675 272.749L263.471 272.463L263.209 276.313L267.413 276.599L267.675 272.749Z" fill="black"/>
<path opacity="0.1" d="M263.528 263.455L242.008 261.991L241.747 265.841L263.266 267.306L263.528 263.455Z" fill="black"/>
<path d="M267.527 229.032L245.12 227.507L244.718 233.427L267.125 234.952L267.527 229.032Z" fill="#3F3D56"/>
<path opacity="0.1" d="M267.527 229.032L245.12 227.507L244.718 233.427L267.125 234.952L267.527 229.032Z" fill="black"/>
<path opacity="0.1" d="M250.843 295.34C250.843 295.34 250.646 324.373 243.002 341.043C243.002 341.043 252.218 319.074 252.218 318.194C252.218 317.315 257.311 308.092 255.947 305.346C254.583 302.601 250.843 295.34 250.843 295.34Z" fill="black"/>
<path opacity="0.1" d="M251.259 160.784C250.966 158.215 251.595 155.624 253.033 153.476C252.862 155.629 253.471 157.773 254.748 159.515C256.025 161.257 257.886 162.482 259.99 162.965C259.811 162.809 259.682 162.602 259.622 162.372C259.563 162.142 259.574 161.898 259.655 161.675C260.747 162.911 261.583 164.378 262.819 165.465C264.055 166.553 265.909 167.203 267.363 166.43C269.339 165.364 269.361 162.554 268.849 160.369C267.752 155.714 265.5 151.411 262.302 147.857C261.504 146.782 260.469 145.907 259.276 145.301C258.084 144.694 256.768 144.372 255.43 144.359C252.404 144.125 249.261 144.391 246.55 145.751C245.024 146.584 243.595 147.584 242.288 148.731L234.83 154.819C234.113 155.336 233.498 155.984 233.019 156.727C232.699 157.349 232.507 158.029 232.454 158.727C232.264 160.72 232.632 162.728 233.519 164.524C234.405 166.32 235.774 167.833 237.472 168.893C237.436 167.317 237.87 165.766 238.717 164.437C239.564 163.108 240.786 162.061 242.23 161.429C242.456 161.619 242.639 161.854 242.766 162.12C242.894 162.385 242.963 162.675 242.97 162.97L244.541 160.166C244.775 159.656 245.144 159.219 245.607 158.903C246.576 158.369 247.786 158.999 248.611 159.75C249.437 160.502 250.242 161.44 251.35 161.557L251.392 157.383" fill="black"/>
<path d="M251.259 160.198C250.965 157.627 251.594 155.034 253.033 152.884C252.553 157.149 255.766 161.552 259.995 162.373C259.816 162.218 259.687 162.013 259.627 161.783C259.567 161.554 259.579 161.311 259.66 161.088C260.752 162.325 261.588 163.786 262.824 164.879C264.06 165.972 265.914 166.617 267.368 165.838C269.345 164.772 269.366 161.963 268.854 159.782C267.757 155.127 265.505 150.824 262.307 147.27C261.315 146.06 260.065 145.087 258.648 144.423C257.622 144.044 256.544 143.824 255.451 143.773C252.426 143.538 249.283 143.8 246.571 145.159C245.046 145.996 243.617 146.997 242.309 148.144L234.851 154.233C234.133 154.749 233.518 155.396 233.04 156.141C232.72 156.763 232.527 157.443 232.476 158.14C232.285 160.133 232.654 162.14 233.541 163.935C234.427 165.73 235.796 167.242 237.494 168.301C237.459 166.726 237.893 165.175 238.74 163.847C239.587 162.518 240.809 161.471 242.251 160.838C242.476 161.028 242.659 161.263 242.786 161.529C242.914 161.794 242.984 162.084 242.991 162.378L244.557 159.585C244.79 159.074 245.158 158.637 245.623 158.321C246.592 157.788 247.802 158.417 248.627 159.169C249.453 159.921 250.258 160.854 251.366 160.976L251.408 156.797" fill="#3F3D56"/>
<path d="M258.685 259.158C257.316 258.465 234.676 262 234.676 262C234.676 262 230.947 260.933 221.933 259.451C212.92 257.969 212.344 249.152 212.344 249.152L211.359 231.501L214.401 228.835L227.431 237.365C227.431 237.365 227.633 241.678 227.431 242.456C227.303 242.989 226.962 243.624 226.994 244.055C227.004 244.172 227.052 244.283 227.131 244.369C227.21 244.456 227.315 244.514 227.431 244.535C228.315 244.759 240.365 246.71 240.365 246.71C240.365 246.71 268.295 244.796 275.258 254.211C275.809 254.902 276.227 255.69 276.488 256.535C278.214 262.97 259.926 259.771 258.685 259.158Z" fill="#FBBEBE"/>
<path opacity="0.1" d="M276.504 256.573C275.439 257.047 274.778 257.388 274.778 257.388C274.778 257.388 264.785 257.095 259.17 255.059C253.555 253.022 246.731 253.385 246.731 253.385C246.731 253.385 223.334 249.354 226.962 244.093C226.972 244.21 227.02 244.32 227.099 244.407C227.178 244.493 227.283 244.552 227.399 244.572C228.283 244.796 240.333 246.748 240.333 246.748C240.333 246.748 268.263 244.834 275.226 254.248C275.794 254.936 276.228 255.724 276.504 256.573Z" fill="black"/>
<path d="M286.221 225.514C286.221 225.514 287.595 235.222 287.691 236.011C287.787 236.8 288.282 246.305 287.691 247.387C287.1 248.469 286.221 250.229 286.221 250.229C286.221 250.229 287.201 252.286 283.28 253.075C279.36 253.864 274.757 256.21 274.757 256.21C274.757 256.21 264.758 255.917 259.175 253.859C253.592 251.801 246.731 252.19 246.731 252.19C246.731 252.19 217.032 247.089 229.775 240.862C242.517 234.635 251.531 243.069 251.531 243.069L265.738 242.189C265.738 242.189 271.033 238.948 272.504 239.247C273.542 239.379 274.596 239.209 275.54 238.756L275.641 228.457L286.221 225.514Z" fill="#FBBEBE"/>
<path opacity="0.1" d="M214.177 201.684L211.332 201.535L202.713 235.12C202.713 235.12 212.019 232.764 216.031 235.12C220.042 237.477 227.399 237.962 227.399 237.962L224.655 211.189L214.177 201.684Z" fill="black"/>
<path d="M214.177 201.092L211.332 200.943L202.713 234.529C202.713 234.529 212.019 232.172 216.031 234.529C220.042 236.885 227.399 237.37 227.399 237.37L224.655 210.598L214.177 201.092Z" fill="#BAD5F3"/>
<path opacity="0.1" d="M279.365 208.449L283.28 209.334C283.28 209.334 293.279 223.728 294.062 224.533C294.846 225.338 290.333 228.265 288.474 228.265C286.615 228.265 277.5 229.331 274.853 231.794C272.205 234.257 273.308 221.862 273.308 221.58C273.308 221.297 276.595 213.476 276.595 213.476L279.365 208.449Z" fill="black"/>
<path d="M279.365 207.863L283.28 208.742C283.28 208.742 293.279 223.163 294.062 223.947C294.846 224.73 290.333 227.678 288.474 227.678C286.615 227.678 277.5 228.745 274.853 231.207C272.205 233.67 273.308 221.276 273.308 220.993C273.308 220.711 276.616 212.863 276.616 212.863L279.365 207.863Z" fill="#BAD5F3"/>
<g opacity="0.1">
<path opacity="0.1" d="M253.006 152.932C252.983 152.523 252.992 152.113 253.033 151.706C252.222 152.924 251.664 154.292 251.392 155.73V156.967C251.392 156.967 251.392 156.941 251.392 156.925V157.218C251.392 158.081 251.392 158.95 251.366 159.814H251.291V160.214C251.291 160.075 251.291 159.942 251.264 159.803C250.199 159.633 249.437 158.737 248.643 158.023C247.85 157.308 246.608 156.626 245.639 157.175C245.174 157.49 244.806 157.928 244.573 158.439L242.991 161.232C242.984 160.938 242.915 160.649 242.787 160.384C242.659 160.12 242.476 159.885 242.251 159.697C240.808 160.329 239.585 161.376 238.738 162.704C237.891 164.033 237.458 165.584 237.494 167.16C236.038 166.248 234.821 165.001 233.942 163.525C233.063 162.048 232.547 160.383 232.438 158.668C232.346 160.583 232.765 162.489 233.654 164.188C234.543 165.887 235.868 167.318 237.494 168.333C237.459 166.758 237.893 165.207 238.74 163.878C239.587 162.55 240.809 161.503 242.251 160.87C242.476 161.059 242.659 161.295 242.786 161.561C242.914 161.826 242.984 162.116 242.991 162.41L244.557 159.617C244.79 159.106 245.158 158.669 245.623 158.353C246.592 157.82 247.802 158.449 248.627 159.201C249.453 159.953 250.257 160.886 251.366 161.008C251.366 159.643 251.38 158.282 251.408 156.925C251.669 155.5 252.213 154.143 253.006 152.932Z" fill="black"/>
<path opacity="0.1" d="M251.206 158.3C251.232 157.938 251.275 157.575 251.328 157.234L251.387 155.762C251.227 156.598 251.166 157.45 251.206 158.3Z" fill="black"/>
<path opacity="0.1" d="M267.368 164.66C265.914 165.438 264.06 164.788 262.824 163.7C261.588 162.613 260.752 161.147 259.66 159.91C259.579 160.134 259.568 160.377 259.628 160.607C259.688 160.837 259.816 161.044 259.995 161.2C259.889 161.2 259.788 161.147 259.686 161.12C260.752 162.346 261.599 163.786 262.824 164.852C264.049 165.918 265.914 166.59 267.368 165.812C268.822 165.033 269.238 163.21 269.11 161.435C269.014 162.831 268.513 164.042 267.368 164.66Z" fill="black"/>
<path opacity="0.1" d="M259.655 161.11C257.873 160.624 256.283 159.605 255.096 158.189C253.91 156.773 253.184 155.028 253.017 153.188C252.713 157.372 255.867 161.568 259.995 162.373C259.82 162.22 259.693 162.018 259.633 161.793C259.572 161.568 259.579 161.33 259.655 161.11Z" fill="black"/>
</g>
<path d="M515.484 248.24C515.484 248.24 513.385 247.947 513.385 244.892C513.385 241.838 511.883 236.117 511.883 236.117C511.883 236.117 510.583 226.164 508.788 224.586C506.993 223.008 504.686 213.743 504.686 213.743C504.686 213.743 504.292 208.716 503.488 207.634C502.683 206.551 501.596 203.902 499.993 200.122C498.39 196.342 491.72 193.752 491.72 193.752C491.72 193.752 479.633 186.736 476.207 184.449C475.894 184.259 475.601 184.038 475.334 183.788C474.737 183.01 472.137 182.994 472.137 182.994C471.866 181.272 471.605 179.299 471.52 177.513C471.52 177.321 471.52 177.129 471.52 176.937C475.339 174.678 478.216 171.116 479.622 166.904C479.686 166.702 479.739 166.494 479.798 166.286C480.032 166.214 480.247 166.093 480.431 165.931C480.615 165.769 480.762 165.571 480.863 165.348C481.167 164.66 481.178 163.86 481.561 163.215C482.009 162.458 482.861 162.053 483.532 161.488C485.226 160.043 485.663 157.618 485.583 155.416C485.53 153.625 485.242 151.823 485.354 150.048C485.354 149.898 485.354 149.749 485.386 149.6C485.418 149.339 485.455 149.067 485.503 148.811C485.764 147.489 486.334 146.241 486.654 144.93C486.973 143.618 487.005 142.142 486.26 141.012C485.168 139.354 482.893 139.023 480.895 138.879C478.631 138.687 476.634 138.932 475.158 137.051C474.481 136.068 473.718 135.147 472.878 134.3C472.58 134.023 469.682 132.247 469.682 132.135C466.846 130.816 463.629 130.568 460.626 131.437C459.118 131.874 457.706 132.588 456.177 132.946C452.896 133.724 449.114 132.882 446.322 134.764C444.767 135.83 443.834 137.53 442.961 139.178C442.25 140.535 441.53 141.895 440.798 143.256C439.615 145.49 438.422 147.761 437.927 150.234C437.823 150.775 437.757 151.321 437.73 151.871C437.73 152.068 437.73 152.265 437.73 152.463C437.73 152.548 437.73 152.633 437.73 152.719C437.73 152.9 437.73 153.081 437.762 153.252C437.794 153.422 437.762 153.47 437.799 153.582C437.836 153.694 437.847 153.945 437.879 154.115C437.911 154.286 437.975 154.59 438.039 154.819C438.039 154.92 438.102 155.016 438.134 155.117C438.166 155.219 438.252 155.475 438.321 155.651C438.39 155.827 438.395 155.837 438.438 155.928C438.518 156.114 438.614 156.296 438.71 156.461C438.752 156.53 438.784 156.6 438.827 156.669C438.973 156.918 439.137 157.157 439.317 157.383C440.452 158.807 442.135 159.713 443.376 161.046C443.376 161.099 443.376 161.152 443.376 161.206C443.376 161.349 443.376 161.493 443.376 161.643C443.452 164.615 444.253 167.524 445.709 170.117C447.165 172.709 449.231 174.906 451.729 176.516C451.729 176.719 451.756 176.927 451.767 177.135C451.87 178.715 451.851 180.302 451.708 181.879C451.491 181.624 451.219 181.421 450.913 181.285C450.607 181.148 450.274 181.082 449.939 181.09C449.71 181.079 449.481 181.099 449.257 181.149L449.21 181.112V181.16C448.038 181.448 446.594 182.668 445.214 186.139C445.214 186.139 441.016 190.873 437.82 190.676C434.624 190.478 426.532 195.607 426.532 195.607C426.532 195.607 418.637 200.73 416.943 205.954C415.996 208.918 414.859 211.817 413.539 214.633L403.753 234.742L401.958 250.735C401.958 250.735 402.954 257.831 402.757 258.918C402.56 260.006 406.854 269.762 406.854 269.762C406.854 269.762 421.04 294.7 426.836 295.98L427.251 295.692C427.5 295.818 427.763 295.914 428.034 295.98L429.227 295.143C429.301 296.08 429.269 297.022 429.132 297.952C428.338 300.421 429.435 316.488 430.831 319.639C432.227 322.79 431.731 364.105 431.731 364.105L431.534 367.746C431.534 367.746 431.534 367.864 431.582 368.066L431.534 368.93L431.678 369.004C431.827 370.163 431.779 371.338 431.534 372.48C431.033 374.08 430.831 378.595 430.831 378.595C430.831 378.595 426.836 404.12 428.732 409.248C430.629 414.377 432.232 419.996 432.232 419.996C432.232 419.996 434.23 426.393 432.328 427.459C430.426 428.526 425.04 430.418 426.138 433.078C427.15 435.541 430.991 442.141 431.561 443.106L431.513 443.639L430.73 452.131C430.857 453.253 431.16 454.347 431.63 455.373C432.488 457.228 434.15 459.142 437.325 458.934C437.857 458.896 438.47 458.838 439.072 458.758C444.873 457.974 452.012 455.383 452.012 455.383C451.641 455.149 451.303 454.867 451.005 454.546C450.72 454.27 450.494 453.938 450.341 453.572C450.188 453.205 450.111 452.811 450.115 452.414C450.2 450.863 447.308 443.5 446.583 441.683L446.418 441.277C446.418 441.277 453.013 434.374 451.916 428.264C451.916 428.264 444.618 423.999 447.02 421.654C449.423 419.308 453.716 412.591 453.716 412.591C453.716 412.591 453.913 387.455 453.716 383.707C453.511 381.101 453.634 378.479 454.084 375.903C454.164 375.519 454.26 375.14 454.361 374.762C457.686 375.264 461.045 375.519 464.408 375.524C465.637 375.524 466.88 375.499 468.137 375.45C468.137 375.805 468.153 376.189 468.185 376.601C468.462 382.828 468.978 393.751 469.399 397.808C469.996 403.619 473.293 419.297 473.293 419.297C473.293 419.297 467.002 423.333 474.391 433.297C474.391 433.297 474.391 436.901 473.901 437.428C473.377 439.138 472.956 440.877 472.638 442.637C472.329 444.508 472.201 446.411 472.702 447.392C473.901 449.748 481.092 449.557 481.092 449.557C481.15 449.543 481.209 449.534 481.268 449.53C482.626 449.386 483.998 449.515 485.305 449.909C486.612 450.302 487.828 450.953 488.881 451.822C491.613 454.019 501.98 453.059 507.6 452.355C509.8 452.073 511.27 451.822 511.27 451.822C511.341 451.573 511.366 451.313 511.345 451.055C511.286 449.674 510.205 446.646 502.875 443.943C502.875 443.943 495.982 439.305 496.078 435.264H495.923H495.129C495.63 435.248 495.982 435.248 495.982 435.248C495.982 435.248 493.281 425.391 494.383 424.586C495.486 423.781 492.183 412.858 492.183 412.858C492.183 412.858 490.292 394.519 490.186 393.239C490.193 392.137 490.361 391.041 490.686 389.987L490.186 379.928C490.186 379.928 490.09 376.585 490.186 375.498C490.175 374.554 490.1 373.611 489.962 372.677C489.914 372.304 489.866 371.915 489.813 371.531C492.396 370.876 494.075 370.273 494.075 370.273L493.776 335.275C495.971 331.01 496.376 321.649 496.365 315.017C496.365 310.752 496.173 307.596 496.173 307.596L499.173 302.697C499.173 302.697 499.865 296.833 498.768 295.548C498.283 294.967 498.501 294.364 498.901 293.869C499.111 293.696 499.334 293.539 499.567 293.399C499.541 293.362 499.517 293.323 499.498 293.282C499.707 293.107 499.93 292.949 500.163 292.808C500.163 292.808 499.098 291.155 500.052 290.457C500.947 291.065 501.746 291.55 502.353 291.896C502.31 292.285 502.268 292.509 502.268 292.509L502.523 291.976C503.109 292.307 503.466 292.509 503.466 292.509C503.466 292.509 508.165 283.143 508.064 281.767C507.962 280.392 511.26 274.57 511.26 274.57C511.26 274.57 511.659 271.51 513.46 270.231C515.26 268.951 514.856 259.681 514.856 259.681C514.856 259.681 515.356 254.851 516.555 252.884C517.754 250.916 515.484 248.24 515.484 248.24ZM425.584 244.13L425.674 246.364C425.142 245.505 424.758 244.892 424.758 244.892L425.584 244.13Z" fill="url(#paint1_linear_67_386)"/>
<path d="M503.743 288.458L502.593 293.362C502.593 293.362 493.377 288.644 491.72 282.673C490.063 276.703 494.495 274.426 494.495 274.426L503.088 278.062L503.743 288.458Z" fill="white"/>
<path opacity="0.1" d="M503.743 288.458L502.593 293.362C502.593 293.362 493.377 288.644 491.72 282.673C490.063 276.703 494.495 274.426 494.495 274.426L503.088 278.062L503.743 288.458Z" fill="black"/>
<path d="M452.022 455.378C452.022 455.378 443.499 458.513 437.639 458.907C434.528 459.115 432.893 457.207 432.051 455.367C431.593 454.353 431.295 453.274 431.167 452.169L431.939 443.719L432.344 439.225L444.793 435.984L446.557 441.384L446.722 441.789C447.425 443.596 450.27 450.921 450.184 452.451C450.177 452.847 450.251 453.24 450.4 453.606C450.549 453.973 450.771 454.305 451.053 454.584C451.341 454.888 451.667 455.155 452.022 455.378Z" fill="white"/>
<path d="M510.216 451.081C510.238 451.339 510.212 451.6 510.141 451.849C510.141 451.849 491.912 454.888 488.183 451.849C487.134 450.961 485.913 450.302 484.595 449.914C483.278 449.526 481.895 449.416 480.533 449.594C480.533 449.594 473.48 449.786 472.303 447.461C471.812 446.486 471.94 444.593 472.244 442.733C472.554 440.983 472.967 439.252 473.48 437.551L473.762 437.327L475.44 435.978L495.087 435.397H495.236C495.14 439.417 501.9 444.028 501.9 444.028C509.097 446.694 510.157 449.706 510.216 451.081Z" fill="white"/>
<path opacity="0.1" d="M510.221 451.081C510.24 451.34 510.213 451.6 510.141 451.849C510.141 451.849 491.912 454.888 488.188 451.849C487.139 450.96 485.917 450.301 484.598 449.913C483.28 449.524 481.895 449.416 480.533 449.594C480.533 449.594 473.475 449.786 472.297 447.461C471.812 446.486 471.935 444.593 472.239 442.727C474.955 442.999 479.244 443.676 480.927 445.297C483.474 447.749 487.788 450.202 490.431 450.399C492.519 450.527 504.936 450.921 510.221 451.081Z" fill="black"/>
<path opacity="0.1" d="M452.022 455.378C452.022 455.378 443.499 458.513 437.639 458.907C434.528 459.115 432.893 457.206 432.051 455.367C434.224 456.098 437.234 456.86 438.816 456.162C440.691 455.325 447.34 454.791 451.069 454.562C451.35 454.874 451.67 455.149 452.022 455.378Z" fill="black"/>
<path d="M464.669 202.745C457.637 200.01 448.592 190.974 450.85 186.752C451.349 185.686 451.647 184.536 451.729 183.361C451.875 181.766 451.896 180.162 451.793 178.563C451.635 175.944 451.32 173.336 450.85 170.753C450.85 170.753 472.803 171.249 471.525 174.485C471.152 175.439 471.088 177.087 471.195 178.926C471.301 180.765 471.562 182.86 471.839 184.625C472.217 187.04 472.606 188.89 472.606 188.89C472.606 188.89 471.258 190.772 470.475 190.873C469.692 190.974 474.758 206.663 464.669 202.745Z" fill="#CF6F80"/>
<path opacity="0.1" d="M446.7 441.763L446.535 441.944C439.972 434.001 432.035 443.906 432.035 443.906L431.918 443.692L432.323 439.198L444.772 435.957L446.535 441.357L446.7 441.763Z" fill="black"/>
<path opacity="0.1" d="M495.246 435.957C495.246 435.957 490.452 435.861 487.895 438.121C485.338 440.382 472.979 438.607 473.512 438.121C473.667 437.875 473.762 437.596 473.789 437.306L475.467 435.957L495.113 435.376C495.188 435.749 495.246 435.957 495.246 435.957Z" fill="black"/>
<path d="M454.867 373.578C454.511 374.462 454.239 375.378 454.057 376.313C453.613 378.875 453.489 381.483 453.69 384.075C453.887 387.807 453.69 412.815 453.69 412.815C453.69 412.815 449.476 419.484 447.121 421.835C444.767 424.186 451.916 428.408 451.916 428.408C452.981 434.491 446.525 441.357 446.525 441.357C439.962 433.414 432.024 443.314 432.024 443.314C432.024 443.314 427.709 435.85 426.633 433.185C425.557 430.519 430.847 428.68 432.706 427.593C434.565 426.505 432.61 420.129 432.61 420.129C432.61 420.129 431.044 414.537 429.18 409.435C427.315 404.333 431.236 378.941 431.236 378.941C431.236 378.941 431.438 374.426 431.923 372.853C432.165 371.718 432.214 370.55 432.067 369.399C432.035 369.01 431.998 368.69 431.971 368.466C431.944 368.242 431.923 368.146 431.923 368.146L431.998 368.018L434.661 363.05C434.661 363.05 456.145 370.449 454.867 373.578Z" fill="#BAD5F3"/>
<path d="M495.246 435.371C495.246 435.371 490.452 435.269 487.895 437.503C485.338 439.737 472.979 437.993 473.512 437.503C474.045 437.013 473.997 433.387 473.997 433.387C466.746 423.477 472.931 419.457 472.931 419.457C472.931 419.457 469.698 403.864 469.112 398.08C468.701 394.044 468.195 383.153 467.924 376.985C467.806 374.319 467.737 372.48 467.737 372.48L473.608 371.313L474.369 371.163L488.657 368.29C488.657 368.29 489.051 370.956 489.317 373.136C489.452 374.067 489.525 375.005 489.536 375.945C489.445 377.012 489.536 380.354 489.536 380.354L490.026 390.355C489.71 391.405 489.545 392.495 489.536 393.591C489.637 394.871 491.496 413.108 491.496 413.108C491.496 413.108 494.73 423.994 493.627 424.778C492.524 425.561 495.246 435.371 495.246 435.371Z" fill="#BAD5F3"/>
<path opacity="0.1" d="M471.525 174.501C471.152 175.455 471.088 177.103 471.194 178.942C468.254 180.714 464.874 181.62 461.442 181.556C458.01 181.492 454.666 180.46 451.793 178.579C451.635 175.96 451.32 173.352 450.85 170.769C450.85 170.769 472.803 171.265 471.525 174.501Z" fill="black"/>
<path d="M480 162.73C480.058 167.567 478.194 172.229 474.817 175.69C471.44 179.151 466.828 181.128 461.995 181.186C457.161 181.244 452.503 179.378 449.044 175.999C445.586 172.62 443.61 168.004 443.552 163.167C443.552 163.018 443.552 162.879 443.552 162.73C443.552 157.892 445.473 153.252 448.891 149.831C452.31 146.409 456.947 144.487 461.781 144.487C466.616 144.487 471.253 146.409 474.672 149.831C478.09 153.252 480.011 157.892 480.011 162.73H480Z" fill="#CF6F80"/>
<path opacity="0.1" d="M464.669 202.745C457.637 200.01 448.592 190.974 450.85 186.752C451.349 185.686 451.647 184.536 451.729 183.361L461.355 191.283L467.311 196.172L471.839 184.641C472.217 187.056 472.606 188.906 472.606 188.906C472.606 188.906 471.258 190.787 470.475 190.889C469.692 190.99 474.758 206.663 464.669 202.745Z" fill="black"/>
<path d="M489.562 237.754L481.524 372.896L471.04 373.584L443.888 295.223L448.341 202.191L449.284 182.535L461.355 192.456L467.311 197.345L471.972 185.472L480.64 193.032L489.562 237.754Z" fill="#BAD5F3"/>
<path opacity="0.1" d="M454.867 373.578C454.511 374.462 454.239 375.378 454.057 376.313C446.421 375.137 439.005 372.82 432.056 369.442L431.912 369.367L431.96 368.509V368.061L434.624 363.092C434.624 363.092 456.145 370.449 454.867 373.578Z" fill="black"/>
<path opacity="0.1" d="M473.784 376.335C471.833 376.668 469.867 376.894 467.892 377.012C467.774 374.346 467.705 372.507 467.705 372.507L473.608 371.313L473.784 376.335Z" fill="black"/>
<path opacity="0.1" d="M489.339 373.136C485.551 374.122 479.697 375.231 474.465 374.538L474.391 371.163L488.678 368.29C488.678 368.29 489.056 370.934 489.339 373.136Z" fill="black"/>
<path opacity="0.1" d="M474.37 375.156C452.528 378.888 432.525 368.189 432.525 368.189L432.717 364.564C432.717 364.564 433.212 323.467 431.838 320.316C430.463 317.165 429.393 301.21 430.17 298.773C430.948 296.337 427.331 259.553 427.331 259.553L426.745 244.626L405.282 235.899L414.871 215.891C416.166 213.087 417.28 210.202 418.206 207.255C419.873 202.057 427.613 196.956 427.613 196.956C427.613 196.956 435.551 191.859 438.688 192.051C441.826 192.243 445.939 187.541 445.939 187.541C448.975 179.795 451.724 183.276 451.724 183.276C451.724 183.649 451.724 183.276 451.575 184.422C450.509 192.925 468.803 219.794 469.064 220.274L470.827 262.741L472.59 316.483L474.37 375.156Z" fill="black"/>
<path d="M473.784 375.156C451.942 378.888 431.934 368.189 431.934 368.189L432.131 364.564C432.131 364.564 432.621 323.467 431.246 320.316C429.872 317.165 428.801 301.194 429.584 298.736C430.367 296.278 426.729 259.531 426.729 259.531L426.138 244.604L404.68 235.878L414.269 215.87C415.561 213.066 416.675 210.183 417.604 207.239C419.271 202.057 427.038 196.95 427.038 196.95C427.038 196.95 434.975 191.854 438.108 192.046C441.24 192.238 445.374 187.541 445.374 187.541C448.416 179.795 451.767 183.276 451.767 183.276C451.767 183.649 451.447 183.809 451.617 184.422C453.961 192.669 468.259 219.794 468.52 220.274L470.284 262.741L472.01 316.51L473.784 375.156Z" fill="white"/>
<path opacity="0.1" d="M467.897 221.473C465.548 220.492 453.104 206.274 453.104 206.274V203.038C452.651 201.972 449.955 202.622 447.777 203.369L448.714 183.713L449.78 184.598C452.107 192.84 467.641 220.998 467.897 221.473Z" fill="black"/>
<path d="M468.488 220.3C466.134 219.314 453.69 205.101 453.69 205.101V201.86C453.237 200.794 450.547 201.444 448.362 202.191L449.284 182.556L450.349 183.436C452.699 191.667 468.227 219.82 468.488 220.3Z" fill="white"/>
<path opacity="0.1" d="M432.525 291.203C432.818 291.203 447.713 289.636 447.713 289.636C447.713 289.636 456.731 307.388 456.14 311.701C455.549 316.014 454.478 319.841 450.85 319.164C447.223 318.487 431.326 319.698 431.326 319.698L432.525 291.203Z" fill="black"/>
<path d="M431.934 290.025C432.232 290.025 447.127 288.458 447.127 288.458C447.127 288.458 456.14 306.237 455.554 310.502C454.968 314.766 453.887 318.642 450.264 317.965C446.642 317.288 430.735 318.498 430.735 318.498L431.934 290.025Z" fill="white"/>
<path d="M443.158 281.714C443.158 281.714 456.827 289.071 457.12 291.31C457.413 293.549 450.163 290.329 448.597 289.934C447.565 289.689 446.516 289.525 445.459 289.444L435.013 289.726L443.158 281.714Z" fill="#CF6F80"/>
<path opacity="0.1" d="M464.077 222.39C464.872 222.39 465.516 221.746 465.516 220.951C465.516 220.156 464.872 219.511 464.077 219.511C463.283 219.511 462.639 220.156 462.639 220.951C462.639 221.746 463.283 222.39 464.077 222.39Z" fill="black"/>
<path d="M464.077 221.804C464.872 221.804 465.516 221.159 465.516 220.364C465.516 219.569 464.872 218.925 464.077 218.925C463.283 218.925 462.639 219.569 462.639 220.364C462.639 221.159 463.283 221.804 464.077 221.804Z" fill="#3F3D56"/>
<path opacity="0.1" d="M466.725 284.699C467.519 284.699 468.163 284.055 468.163 283.26C468.163 282.465 467.519 281.82 466.725 281.82C465.931 281.82 465.287 282.465 465.287 283.26C465.287 284.055 465.931 284.699 466.725 284.699Z" fill="black"/>
<path d="M466.725 284.107C467.519 284.107 468.163 283.463 468.163 282.668C468.163 281.873 467.519 281.229 466.725 281.229C465.931 281.229 465.287 281.873 465.287 282.668C465.287 283.463 465.931 284.107 466.725 284.107Z" fill="#3F3D56"/>
<path opacity="0.1" d="M465.516 253.545C466.31 253.545 466.954 252.9 466.954 252.105C466.954 251.31 466.31 250.666 465.516 250.666C464.721 250.666 464.077 251.31 464.077 252.105C464.077 252.9 464.721 253.545 465.516 253.545Z" fill="black"/>
<path d="M465.516 252.958C466.31 252.958 466.954 252.314 466.954 251.519C466.954 250.724 466.31 250.079 465.516 250.079C464.721 250.079 464.077 250.724 464.077 251.519C464.077 252.314 464.721 252.958 465.516 252.958Z" fill="#3F3D56"/>
<path d="M498.672 289.145C498.672 289.145 499.652 290.617 498.672 291.278C497.692 291.939 498.768 293.634 498.768 293.634C498.768 293.634 496.323 295.063 497.399 296.358C498.475 297.654 497.793 303.47 497.793 303.47L494.852 308.369C494.852 308.369 495.028 311.509 495.039 315.753C495.039 322.374 494.65 331.682 492.498 335.925L492.785 370.742C492.785 370.742 482.488 374.511 473.869 373.36L472.59 317.49C472.59 317.49 474.455 285.808 475.142 279.731C475.544 276.576 475.708 273.394 475.632 270.215C475.632 270.215 475.339 260.704 474.353 256.295C474.353 256.295 473.288 237.168 473.182 231.874C473.134 229.342 473.267 221.953 473.416 214.926C473.581 207.244 473.767 199.999 473.767 199.999L471.823 184.598C471.823 184.598 473.767 184.406 474.353 185.185C474.616 185.43 474.901 185.649 475.206 185.84C478.567 188.111 490.425 195.095 490.425 195.095C490.425 195.095 496.988 197.707 498.56 201.45C500.131 205.192 501.224 207.847 501.985 208.913C502.747 209.979 503.163 214.99 503.163 214.99C503.163 214.99 505.421 224.213 507.185 225.775C508.948 227.337 510.216 237.253 510.216 237.253L494.634 249.514C494.634 249.514 493.265 269.911 492.972 270.7C492.679 271.489 498.672 289.145 498.672 289.145Z" fill="white"/>
<path d="M499.263 289.145C499.263 289.145 500.238 290.617 499.263 291.278C498.288 291.939 499.354 293.634 499.354 293.634C499.354 293.634 496.909 295.063 497.985 296.358C499.061 297.654 498.379 303.47 498.379 303.47L495.449 308.369C495.449 308.369 495.625 311.509 495.641 315.753C495.641 322.374 495.252 331.682 493.1 335.925L493.393 370.742C493.393 370.742 483.095 374.511 474.476 373.36L473.203 317.49C473.203 317.49 475.062 285.808 475.755 279.731C476.157 276.576 476.319 273.394 476.239 270.215C476.239 270.215 475.946 260.704 474.966 256.295C474.966 256.295 473.901 237.168 473.789 231.874C473.741 229.342 473.874 221.953 474.023 214.926C474.188 207.244 474.375 200 474.375 200L471.807 184.39C471.807 184.39 474.375 184.39 474.966 185.185C475.226 185.433 475.512 185.653 475.818 185.84C479.175 188.111 491.033 195.095 491.033 195.095C491.033 195.095 497.58 197.707 499.178 201.45C500.776 205.192 501.841 207.847 502.603 208.913C503.365 209.979 503.781 214.99 503.781 214.99C503.781 214.99 506.039 224.213 507.803 225.775C509.566 227.337 510.839 237.253 510.839 237.253L495.257 249.514C495.257 249.514 493.888 269.911 493.59 270.7C493.291 271.489 499.263 289.145 499.263 289.145Z" fill="white"/>
<path opacity="0.1" d="M480.602 204.526L482.014 208.631L474.604 216.094C474.769 208.412 474.955 201.167 474.955 201.167L472.388 185.563C472.388 185.563 474.955 185.563 475.547 186.357C475.807 186.606 476.093 186.826 476.399 187.013L482.696 205.187L480.602 204.526Z" fill="black"/>
<path d="M480 203.347L481.412 207.447L474.007 214.911C474.167 207.228 474.359 199.984 474.359 199.984L471.786 184.374C471.786 184.374 474.359 184.374 474.945 185.169C475.206 185.415 475.492 185.635 475.797 185.824L482.131 204.014L480 203.347Z" fill="white"/>
<path opacity="0.1" d="M480 162.73C480.002 164.651 479.7 166.56 479.105 168.386C479.005 168.403 478.902 168.4 478.803 168.376C478.705 168.352 478.612 168.308 478.53 168.248C478.386 163.45 476.031 158.94 473.128 155.107C472.312 153.951 471.324 152.926 470.198 152.068C469.059 151.212 467.643 150.811 466.224 150.943C464.626 151.162 463.214 152.249 461.6 152.388C459.47 152.564 457.562 151.087 455.448 151.018C454.588 151.025 453.739 151.216 452.959 151.578C452.179 151.941 451.485 152.466 450.925 153.118C449.813 154.431 448.987 155.962 448.501 157.612C447.663 160.117 447.207 162.734 447.148 165.374C447.121 166.867 446.977 168.738 445.592 169.282C445.697 168.185 445.573 167.078 445.227 166.032C444.881 164.986 444.322 164.023 443.584 163.205L443.552 163.167C443.552 163.018 443.552 162.879 443.552 162.73C443.552 157.892 445.473 153.252 448.891 149.831C452.31 146.409 456.947 144.487 461.781 144.487C466.616 144.487 471.253 146.409 474.672 149.831C478.09 153.252 480.011 157.892 480.011 162.73H480Z" fill="black"/>
<path d="M469.346 133.767C466.578 132.464 463.429 132.217 460.492 133.074C459.017 133.511 457.626 134.22 456.129 134.577C452.933 135.35 449.204 134.513 446.461 136.384C444.937 137.45 444.021 139.135 443.169 140.777L441.038 144.834C439.876 147.057 438.704 149.317 438.22 151.764C437.735 154.211 438.028 156.951 439.578 158.924C440.702 160.353 442.375 161.254 443.6 162.602C444.336 163.425 444.894 164.39 445.239 165.439C445.584 166.488 445.708 167.597 445.603 168.696C446.988 168.163 447.127 166.281 447.159 164.788C447.218 162.147 447.675 159.531 448.512 157.026C448.998 155.375 449.823 153.845 450.935 152.532C451.496 151.879 452.189 151.353 452.969 150.99C453.749 150.626 454.598 150.434 455.458 150.426C457.589 150.501 459.501 151.978 461.611 151.796C463.209 151.663 464.626 150.575 466.235 150.357C467.653 150.223 469.071 150.624 470.209 151.482C471.335 152.337 472.322 153.362 473.134 154.52C476.042 158.359 478.402 162.848 478.541 167.661C479.143 168.099 480.011 167.523 480.309 166.84C480.608 166.158 480.618 165.358 480.996 164.708C481.433 163.956 482.27 163.551 482.925 162.986C484.587 161.552 485.002 159.137 484.938 156.946C484.875 154.755 484.448 152.532 484.864 150.378C485.114 149.061 485.679 147.819 485.988 146.513C486.297 145.207 486.334 143.741 485.604 142.616C484.539 140.969 482.296 140.638 480.341 140.484C478.12 140.292 476.133 140.537 474.716 138.666C474.049 137.691 473.3 136.774 472.478 135.926C472.185 135.643 469.346 133.884 469.346 133.767Z" fill="#512E4E"/>
<path opacity="0.1" d="M411.43 246.188L405.868 235.893L404.105 251.78C404.105 251.78 405.085 258.838 404.888 259.92C404.691 261.003 408.905 270.705 408.905 270.705C408.905 270.705 422.824 295.521 428.508 296.795L447.686 283.063L442.593 276.591C442.593 276.591 440.83 275.903 440.388 276.591C440.388 276.591 430.927 260.31 429.952 259.137C428.977 257.964 429.164 255.602 429.164 255.602C429.164 255.602 427.693 254.035 428.183 252.564C428.673 251.092 425.371 245.996 425.371 245.996L428.407 243.154L411.43 246.188Z" fill="black"/>
<path d="M406.161 234.715L404.691 235.893L402.927 251.78C402.927 251.78 403.908 258.838 403.711 259.921C403.513 261.003 407.733 270.705 407.733 270.705C407.733 270.705 421.647 295.521 427.331 296.795L446.541 283.063L441.443 276.591C441.443 276.591 439.679 275.903 439.237 276.591C439.237 276.591 429.781 260.31 428.801 259.137C427.821 257.964 428.018 255.602 428.018 255.602C428.018 255.602 426.548 254.035 427.038 252.564C427.528 251.092 424.193 245.996 424.193 245.996L427.23 243.154L406.161 234.715Z" fill="white"/>
<path opacity="0.1" d="M497.399 296.971C498.464 298.267 497.793 304.088 497.793 304.088L494.852 308.955C494.852 308.955 495.028 312.101 495.039 316.344L490.095 317.89C489.648 318.03 489.173 318.06 488.712 317.979C488.25 317.898 487.814 317.708 487.441 317.424C487.068 317.14 486.768 316.771 486.566 316.348C486.364 315.925 486.266 315.459 486.281 314.99L487.139 287.482L498.672 291.891C497.692 292.573 498.768 294.247 498.768 294.247C498.768 294.247 496.323 295.676 497.399 296.971Z" fill="black"/>
<path d="M497.985 296.385C499.05 297.675 498.379 303.496 498.379 303.496L495.449 308.369C495.449 308.369 495.625 311.509 495.641 315.752L490.607 317.325C490.169 317.462 489.706 317.493 489.254 317.414C488.803 317.335 488.377 317.15 488.012 316.873C487.647 316.596 487.354 316.235 487.156 315.821C486.959 315.408 486.863 314.953 486.878 314.494L487.735 286.89L499.263 291.31C498.278 291.992 499.354 293.666 499.354 293.666C499.354 293.666 496.908 295.089 497.985 296.385Z" fill="white"/>
<path d="M501.81 283.26C501.81 283.26 501.026 288.266 499.066 288.559C497.106 288.852 496.227 296.657 494.272 296.385C492.317 296.113 493.611 289.124 493.68 287.77C493.75 286.416 491.549 280.808 493.19 279.533C494.831 278.259 500.052 279.533 500.052 279.533L501.81 283.26Z" fill="#CF6F80"/>
<path opacity="0.1" d="M505.954 244.716L509.646 237.253C509.646 237.253 511.121 242.941 511.121 245.98C511.121 249.019 513.178 249.317 513.178 249.317C513.178 249.317 515.431 251.983 514.243 253.928C513.055 255.874 512.581 260.694 512.581 260.694C512.581 260.694 512.97 269.911 511.207 271.185C509.443 272.459 509.049 275.503 509.049 275.503C509.049 275.503 505.816 281.287 505.917 282.663C506.018 284.038 501.41 293.352 501.41 293.352C501.41 293.352 503.663 281.778 490.532 276.777C490.532 276.777 490.431 272.854 491.411 271.777C492.391 270.7 493.92 270.177 492.961 264.761C492.002 259.345 492.684 252.814 492.684 251.508C492.684 250.202 495.625 242.062 495.625 242.062L505.954 244.716Z" fill="black"/>
<path d="M507.595 236.187L510.823 237.253C510.823 237.253 512.299 242.941 512.299 245.98C512.299 249.018 514.355 249.317 514.355 249.317C514.355 249.317 516.608 251.983 515.42 253.928C514.232 255.874 513.753 260.693 513.753 260.693C513.753 260.693 514.147 269.911 512.384 271.185C510.621 272.459 510.253 275.503 510.253 275.503C510.253 275.503 507.019 281.287 507.121 282.663C507.222 284.038 502.609 293.351 502.609 293.351C502.609 293.351 504.862 281.778 491.731 276.777C491.731 276.777 491.635 272.854 492.615 271.777C493.595 270.7 495.124 270.177 494.165 264.761C493.206 259.345 493.888 252.814 493.888 251.508C493.888 250.202 496.829 242.061 496.829 242.061L507.595 236.187Z" fill="white"/>
<path opacity="0.1" d="M436.275 429.634C436.275 429.634 441.421 426.398 444.799 428.749C448.176 431.1 436.275 429.634 436.275 429.634Z" fill="black"/>
<path opacity="0.1" d="M476.271 419.628C476.271 419.628 480.826 419.042 484.651 423.163C488.476 427.283 476.271 419.628 476.271 419.628Z" fill="black"/>
<g opacity="0.1">
<path opacity="0.1" d="M482.925 161.813C482.27 162.384 481.428 162.783 480.991 163.535C480.618 164.18 480.608 164.98 480.309 165.668C480.011 166.355 479.143 166.926 478.535 166.489C478.397 161.691 476.037 157.186 473.134 153.347C472.322 152.191 471.335 151.167 470.209 150.314C469.07 149.454 467.65 149.051 466.23 149.184C464.631 149.403 463.225 150.49 461.611 150.629C459.48 150.805 457.568 149.328 455.453 149.259C454.594 149.265 453.746 149.456 452.966 149.818C452.187 150.181 451.495 150.706 450.935 151.359C449.823 152.672 448.998 154.202 448.512 155.853C447.675 158.358 447.218 160.975 447.159 163.615C447.127 165.102 446.988 166.958 445.614 167.512C445.646 167.908 445.646 168.305 445.614 168.701C447.004 168.168 447.143 166.286 447.175 164.793C447.234 162.153 447.69 159.536 448.528 157.031C449.014 155.381 449.839 153.85 450.951 152.537C451.511 151.884 452.204 151.359 452.983 150.995C453.762 150.632 454.609 150.44 455.469 150.431C457.6 150.506 459.517 151.983 461.627 151.801C463.225 151.668 464.642 150.581 466.246 150.362C467.666 150.228 469.085 150.629 470.225 151.487C471.351 152.342 472.338 153.367 473.15 154.526C476.053 158.364 478.413 162.853 478.551 167.667C479.159 168.104 480.027 167.528 480.325 166.846C480.623 166.163 480.634 165.364 481.007 164.713C481.444 163.962 482.286 163.556 482.941 162.991C484.603 161.557 485.018 159.142 484.954 156.951C484.954 156.882 484.954 156.818 484.954 156.749C484.848 158.657 484.342 160.592 482.925 161.813Z" fill="black"/>
<path opacity="0.1" d="M443.595 161.44C442.375 160.091 440.702 159.185 439.578 157.756C438.629 156.495 438.088 154.973 438.028 153.396C437.861 155.368 438.411 157.335 439.578 158.934C440.702 160.363 442.375 161.264 443.595 162.613C444.773 163.931 445.481 165.604 445.608 167.368C445.688 166.295 445.551 165.217 445.205 164.199C444.859 163.18 444.312 162.242 443.595 161.44Z" fill="black"/>
<path opacity="0.1" d="M485.988 145.34C485.674 146.646 485.114 147.889 484.859 149.205C484.705 150.096 484.65 151 484.693 151.903C484.711 151.393 484.766 150.885 484.859 150.383C485.114 149.067 485.674 147.825 485.988 146.518C486.169 145.798 486.228 145.052 486.164 144.311C486.129 144.658 486.071 145.002 485.988 145.34Z" fill="black"/>
</g>
<path opacity="0.1" d="M70.7069 447.211C99.3746 447.211 122.614 443.476 122.614 438.868C122.614 434.26 99.3746 430.525 70.7069 430.525C42.0392 430.525 18.7994 434.26 18.7994 438.868C18.7994 443.476 42.0392 447.211 70.7069 447.211Z" fill="#BAD5F3"/>
<path d="M72.3796 279.038H69.0395V354.296H72.3796V279.038Z" fill="#535461"/>
<path d="M93.3738 354.072L93.1607 357.463L92.8677 362.261L92.7452 364.254L92.4469 369.052L92.319 371.046L92.026 375.844L88.6539 430.258C88.5102 432.599 87.4794 434.797 85.7718 436.404C84.0643 438.011 81.8085 438.905 79.4647 438.905H61.9544C59.6041 438.906 57.3425 438.007 55.6337 436.392C53.9249 434.777 52.8985 432.569 52.7651 430.221L49.3931 375.807L49.1001 371.009L48.9776 369.015L48.6739 364.217L48.5514 362.223L48.2584 357.425L48.0453 354.035C48.0084 353.385 48.1041 352.734 48.3265 352.123C48.5488 351.511 48.8933 350.951 49.3388 350.477C49.7843 350.002 50.3216 349.624 50.918 349.364C51.5143 349.104 52.1573 348.968 52.8078 348.965H88.6167C89.27 348.969 89.9157 349.106 90.5141 349.368C91.1124 349.631 91.6509 350.013 92.0964 350.491C92.5419 350.97 92.885 351.534 93.1046 352.15C93.3243 352.765 93.4159 353.42 93.3738 354.072Z" fill="#3F3D56"/>
<path d="M93.1607 357.457L92.8624 362.245H48.5514L48.2531 357.457H93.1607Z" fill="#9D9CB5"/>
<path d="M92.7399 364.238L92.4469 369.026H48.9722L48.6739 364.238H92.7399Z" fill="#9D9CB5"/>
<path d="M92.319 371.025L92.026 375.807H49.3931L49.0948 371.025H92.319Z" fill="#9D9CB5"/>
<path d="M43.1763 307.25C62.631 321.334 70.7335 343.362 70.7335 343.362C70.7335 343.362 47.2942 342.557 27.8342 328.472C8.37424 314.388 0.261032 292.376 0.261032 292.376C0.261032 292.376 23.7004 293.165 43.1763 307.25Z" fill="#BAD5F3"/>
<path d="M0.261032 292.376C0.261032 292.376 24.59 305.89 32.3942 317.08C40.1985 328.27 70.7122 343.373 70.7122 343.373" stroke="#535461" stroke-width="2" stroke-miterlimit="10"/>
<path d="M55.711 278.878C66.3013 286.538 70.7122 298.528 70.7122 298.528C70.7122 298.528 57.9271 298.091 47.3634 290.43C36.7998 282.769 32.3623 270.775 32.3623 270.775C32.3623 270.775 45.126 271.212 55.711 278.878Z" fill="#BAD5F3"/>
<path d="M32.3623 270.775C32.3623 270.775 45.6055 278.131 49.8565 284.219C54.1076 290.308 70.7122 298.528 70.7122 298.528" stroke="#535461" stroke-width="2" stroke-miterlimit="10"/>
<path d="M86.0969 297.92C73.9351 311.296 71.3621 328.776 71.3621 328.776C71.3621 328.776 88.5101 324.565 100.661 311.184C112.812 297.803 115.396 280.328 115.396 280.328C115.396 280.328 98.2588 284.545 86.0969 297.92Z" fill="#BAD5F3"/>
<path d="M115.407 280.333C115.407 280.333 99.5639 294.044 95.5366 303.491C91.5093 312.938 71.3621 328.776 71.3621 328.776" stroke="#535461" stroke-width="2" stroke-miterlimit="10"/>
</g>
<defs>
<linearGradient id="paint0_linear_67_386" x1="247.993" y1="445.441" x2="247.993" y2="137.493" gradientUnits="userSpaceOnUse">
<stop stop-color="#808080" stop-opacity="0.25"/>
<stop offset="0.54" stop-color="#808080" stop-opacity="0.12"/>
<stop offset="1" stop-color="#808080" stop-opacity="0.1"/>
</linearGradient>
<linearGradient id="paint1_linear_67_386" x1="101364" y1="288597" x2="101364" y2="86751.7" gradientUnits="userSpaceOnUse">
<stop stop-color="#808080" stop-opacity="0.25"/>
<stop offset="0.54" stop-color="#808080" stop-opacity="0.12"/>
<stop offset="1" stop-color="#808080" stop-opacity="0.1"/>
</linearGradient>
<clipPath id="clip0_67_386">
<rect width="622" height="460" fill="white"/>
</clipPath>
</defs>
</svg>
