<svg width="475" height="331" viewBox="0 0 475 331" fill="none" xmlns="http://www.w3.org/2000/svg">
<path d="M396.88 50.8962L360.237 51.2536C358.515 42.7651 352.728 20.4926 357.94 14.4176C358.177 12.1311 359.287 10.0244 361.037 8.53608C362.787 7.04777 365.043 6.2925 367.335 6.42749C373.014 -2.47254 382.474 -1.13626 388.868 4.4222C395.302 6.64495 397.728 10.5938 396.88 15.9526C401.645 20.1285 402.524 25.209 400.385 30.9922L396.88 50.8962Z" fill="#2F2E41"/>
<path d="M393.352 73.4941L366.916 69.8296L361.629 62.0934C368.912 57.2568 371.489 50.5013 368.136 41.3277L386.438 40.9206C385.581 49.0898 388.279 55.415 395.793 59.2432L393.352 73.4941Z" fill="#FFB9B9"/>
<path d="M360.666 312.211L359.655 326.046C359.609 326.672 359.698 327.301 359.914 327.89C360.131 328.479 360.471 329.015 360.912 329.462C361.353 329.909 361.884 330.256 362.47 330.48C363.055 330.705 363.682 330.801 364.308 330.763L371.407 330.333C371.736 330.313 372.056 330.22 372.345 330.063C372.635 329.905 372.886 329.685 373.08 329.419C373.275 329.153 373.409 328.847 373.472 328.523C373.536 328.2 373.527 327.866 373.448 327.546L369.507 311.768L360.666 312.211Z" fill="#E6E6E6"/>
<path d="M383.646 311.768L379.706 327.546C379.626 327.866 379.617 328.2 379.681 328.523C379.744 328.847 379.878 329.153 380.073 329.419C380.268 329.685 380.519 329.904 380.808 330.062C381.097 330.22 381.418 330.313 381.746 330.333L388.845 330.763C389.471 330.801 390.098 330.705 390.683 330.48C391.269 330.256 391.8 329.909 392.241 329.462C392.682 329.015 393.022 328.479 393.239 327.89C393.456 327.301 393.544 326.672 393.498 326.046L392.487 312.211L383.646 311.768Z" fill="#E6E6E6"/>
<path d="M392.946 314.132L383.367 313.169L373.83 211.118L370.226 312.84L360.815 312.503L344.953 171.622H405.554L392.946 314.132Z" fill="#BAD5F3"/>
<path d="M378.304 47.8425C388.412 47.8425 396.606 39.6391 396.606 29.5198C396.606 19.4005 388.412 11.1972 378.304 11.1972C368.196 11.1972 360.002 19.4005 360.002 29.5198C360.002 39.6391 368.196 47.8425 378.304 47.8425Z" fill="#FFB9B9"/>
<path d="M414.502 174.879L340.479 175.694C351.465 133.827 358.036 94.937 346.58 68.201L364.882 59.2432C373.707 68.4581 383.535 67.5081 394.166 58.4289L411.655 62.9078C408.659 97.968 410.002 135.518 414.502 174.879Z" fill="#BAD5F3"/>
<path d="M320.144 131.719L366.103 150.042L376.378 153.068C376.837 153.203 377.32 153.244 377.795 153.188C378.271 153.132 378.731 152.98 379.147 152.742C379.562 152.504 379.926 152.184 380.215 151.801C380.504 151.419 380.713 150.982 380.829 150.517C381.033 149.701 380.941 148.839 380.571 148.084C380.2 147.33 379.575 146.731 378.805 146.394L368.136 143.12L336.006 124.39L342.716 106.679L328.685 99.1459L320.144 131.719Z" fill="#FFB9B9"/>
<path d="M320.55 98.3315C329.294 101.747 336.249 107.575 341.7 115.433L358.782 90.5953L346.58 68.201L320.55 98.3315Z" fill="#BAD5F3"/>
<path d="M398.932 26.5503C391.503 24.6342 384.2 24.3711 377.1 26.8015C372.578 28.9943 367.147 28.7922 361.107 26.9855V8.70502L393.714 9.57552L398.932 26.5503Z" fill="#2F2E41"/>
<path d="M365.95 110.371C364.513 110.373 363.135 110.945 362.119 111.962C361.102 112.98 360.531 114.359 360.529 115.798L362.669 160.637C362.671 162.076 363.242 163.455 364.258 164.473C365.275 165.49 366.652 166.062 368.09 166.064H392.552C393.989 166.062 395.367 165.49 396.384 164.473C397.4 163.455 397.971 162.076 397.973 160.637L400.113 115.798C400.111 114.359 399.539 112.98 398.523 111.962C397.507 110.945 396.129 110.373 394.692 110.371H365.95Z" fill="#3F3D56"/>
<path d="M435.358 128.332L395.298 144.301L392.276 145.506C392.18 145.543 392.084 145.575 391.982 145.608L381.856 148.59C380.562 148.971 378.77 147.225 377.721 146.02C377.202 145.439 376.908 144.692 376.892 143.912C376.877 143.133 377.14 142.374 377.636 141.773C377.776 141.612 377.93 141.463 378.096 141.329C378.486 141.025 378.945 140.822 379.433 140.74L389.548 138.748C389.911 138.676 390.26 138.546 390.581 138.362L395.298 135.61L419.792 121.333C420.473 120.937 420.992 120.311 421.255 119.568C421.519 118.824 421.51 118.011 421.231 117.274L416.556 104.93C416.269 104.175 416.267 103.341 416.549 102.584C416.832 101.828 417.38 101.2 418.091 100.818L425.836 96.6622C426.279 96.4243 426.77 96.2901 427.272 96.2697C427.774 96.2492 428.274 96.3431 428.734 96.5442C429.194 96.7452 429.603 97.0483 429.93 97.4305C430.256 97.8127 430.492 98.2641 430.619 98.7507L437.342 124.391C437.549 125.177 437.461 126.012 437.096 126.738C436.73 127.464 436.112 128.031 435.358 128.332Z" fill="#FFB9B9"/>
<path d="M437.684 93.8527C428.94 97.2678 421.986 103.096 416.535 110.954L399.453 86.1164L411.655 62.9077L437.684 93.8527Z" fill="#BAD5F3"/>
<path d="M390.484 45.8279C382.478 49.1621 374.082 49.0267 365.343 45.8279C367.886 41.4828 364.085 38.0797 362.134 33.6935L394.764 32.7227C392.268 36.5332 388.586 41.0351 390.484 45.8279Z" fill="white"/>
<path d="M394.418 33.4478L394.039 33.0692L394.574 32.5337L397.77 28.8001L398.176 29.1482L394.967 32.8967L394.418 33.4478Z" fill="white"/>
<path d="M359.898 31.1782L359.556 31.5898L362.765 34.2674L363.108 33.8558L359.898 31.1782Z" fill="white"/>
<path d="M395.34 36.596L389.722 45.431L390.173 45.7187L395.791 36.8836L395.34 36.596Z" fill="white"/>
<path d="M360.488 36.5953L360.036 36.8829L365.653 45.7188L366.104 45.4312L360.488 36.5953Z" fill="white"/>
<path d="M396.368 134.852V144.554L392.995 145.899C392.887 145.94 392.78 145.976 392.666 146.012L381.363 149.342C379.919 149.766 377.918 147.817 376.748 146.472C376.169 145.824 375.84 144.99 375.823 144.12C375.805 143.25 376.1 142.403 376.652 141.732C376.809 141.552 376.98 141.386 377.166 141.236C377.602 140.897 378.114 140.671 378.659 140.579L389.95 138.355C390.355 138.275 390.744 138.13 391.102 137.925L396.368 134.852Z" fill="white"/>
<path d="M401.257 100.248H399.324C399.324 72.8779 393.695 53.804 388.209 53.804L387.726 51.8689C392.646 51.8689 395.782 59.8072 397.547 66.4669C399.94 75.4952 401.257 87.4922 401.257 100.248Z" fill="#3F3D56"/>
<path d="M356.798 93.4749H354.865C354.865 68.4083 360.533 52.8365 368.879 52.8365L368.396 54.7717C362.623 54.7717 356.798 66.7391 356.798 93.4749Z" fill="#3F3D56"/>
<path d="M400.291 105.57C402.96 105.57 405.123 103.404 405.123 100.732C405.123 98.0598 402.96 95.8938 400.291 95.8938C397.622 95.8938 395.458 98.0598 395.458 100.732C395.458 103.404 397.622 105.57 400.291 105.57Z" fill="#3F3D56"/>
<path d="M349.066 105.086H347.133C347.133 98.15 351.035 92.5073 355.832 92.5073V94.4424C352.101 94.4424 349.066 99.217 349.066 105.086Z" fill="#3F3D56"/>
<path d="M364.53 105.086H362.597C362.597 99.217 359.562 94.4424 355.832 94.4424V92.5073C360.628 92.5073 364.53 98.15 364.53 105.086Z" fill="#3F3D56"/>
<path d="M363.564 107.505C364.631 107.505 365.497 106.638 365.497 105.57C365.497 104.501 364.631 103.634 363.564 103.634C362.496 103.634 361.631 104.501 361.631 105.57C361.631 106.638 362.496 107.505 363.564 107.505Z" fill="#3F3D56"/>
<path d="M348.1 107.505C349.167 107.505 350.033 106.638 350.033 105.57C350.033 104.501 349.167 103.634 348.1 103.634C347.032 103.634 346.167 104.501 346.167 105.57C346.167 106.638 347.032 107.505 348.1 107.505Z" fill="#3F3D56"/>
<path d="M115.15 40.5365L81.2017 46.2919C80.3631 46.4351 79.5012 46.2619 78.7828 45.8056C78.0644 45.3493 77.5407 44.6424 77.3129 43.8218C74.8602 34.9594 69.7322 23.3982 74.7109 17.5945C74.9646 15.1529 76.1491 12.9033 78.0178 11.314C79.8866 9.72472 82.2956 8.9182 84.7434 9.06235C90.8081 -0.441477 100.91 0.985463 107.737 6.92102C114.608 9.29457 117.199 13.5113 116.293 19.2337C119.261 21.8348 120.817 24.7647 121.146 27.9806C121.301 29.7701 121.074 31.5723 120.478 33.2669C119.883 34.9615 118.934 36.5094 117.693 37.8075L115.15 40.5365Z" fill="#2F2E41"/>
<path d="M109.872 67.2931L83.5545 65.7433C86.1337 59.8169 87.1639 54.1101 86.1346 48.6951H105.744C105.7 52.8527 107.766 60.0446 109.872 67.2931Z" fill="#9F616A"/>
<path d="M78.1929 310.749L77.1135 325.522C77.0646 326.191 77.1591 326.862 77.3907 327.491C77.6223 328.121 77.9856 328.693 78.4562 329.17C78.9268 329.647 79.4939 330.018 80.1194 330.257C80.7449 330.497 81.4143 330.6 82.0828 330.56L89.6626 330.1C90.0138 330.079 90.356 329.98 90.6649 329.811C90.9738 329.643 91.2417 329.408 91.4498 329.124C91.6578 328.84 91.8008 328.513 91.8686 328.168C91.9363 327.822 91.9272 327.466 91.8419 327.124L87.6345 310.276L78.1929 310.749Z" fill="#E6E6E6"/>
<path d="M102.732 310.276L98.5246 327.124C98.4392 327.466 98.4301 327.822 98.4979 328.168C98.5657 328.513 98.7087 328.84 98.9167 329.124C99.1247 329.408 99.3927 329.643 99.7016 329.811C100.01 329.98 100.353 330.079 100.704 330.1L108.284 330.56C108.952 330.6 109.622 330.497 110.247 330.257C110.873 330.018 111.44 329.647 111.91 329.17C112.381 328.693 112.744 328.121 112.976 327.491C113.207 326.862 113.302 326.191 113.253 325.522L112.174 310.749L102.732 310.276Z" fill="#E6E6E6"/>
<path d="M112.663 312.8L102.434 311.772L92.2506 202.797L88.4019 311.421L78.3525 311.06L61.4146 160.622H126.126L112.663 312.8Z" fill="#BAD5F3"/>
<path d="M96.4566 54.9665C107.25 54.9665 116 46.2066 116 35.4008C116 24.595 107.25 15.8351 96.4566 15.8351C85.6628 15.8351 76.9128 24.595 76.9128 35.4008C76.9128 46.2066 85.6628 54.9665 96.4566 54.9665Z" fill="#9F616A"/>
<path d="M118.484 26.054C110.551 24.6711 102.752 24.4812 95.1713 26.2353C90.3421 27.818 84.5426 27.6722 78.0929 26.3682V13.1739L112.912 13.8022L118.484 26.054Z" fill="#2F2E41"/>
<path d="M109.463 51.0997C100.913 54.6601 91.9484 54.5155 82.6169 51.0997C85.3322 46.4599 81.2734 42.8259 79.1897 38.1421L114.033 37.1055C111.368 41.1745 107.437 45.9818 109.463 51.0997Z" fill="white"/>
<path d="M76.7906 35.4701L76.448 35.8817L79.875 38.7407L80.2177 38.3291L76.7906 35.4701Z" fill="white"/>
<path d="M114.664 41.2508L108.665 50.6853L109.116 50.973L115.116 41.5385L114.664 41.2508Z" fill="white"/>
<path d="M77.4154 41.2504L76.964 41.538L82.9616 50.9734L83.413 50.6858L77.4154 41.2504Z" fill="white"/>
<path d="M59.3008 124.637L44.3358 115.338L57.0983 77.9173C58.5217 74.056 61.2482 70.8139 64.8062 68.7517L69.1055 66.2599L69.4793 104.01L59.3008 124.637Z" fill="#BAD5F3"/>
<path d="M123.986 142.811L121.772 123.826C121.654 113.805 123.357 104.117 127.417 95.1901L129.482 67.2931L106.776 57.9941C106.706 58.4573 106.647 58.9202 106.581 59.3834L95.9393 64.7101L85.5611 62.3488L85.6186 59.0274L64.9772 68.3264C71.8033 100.097 68.0802 133.089 56.3417 172.059L83.5349 179.503L83.7609 166.431L107.996 164.698C108.246 168.939 108.446 173.105 108.563 177.178C122.238 182.218 122.707 182.135 135.167 174.918C130.205 164.474 126.276 153.606 123.986 142.811Z" fill="#BAD5F3"/>
<path d="M158.896 119.987L144.963 115.338L122.676 89.3643L129.481 67.2934L160.444 110.689L158.896 119.987Z" fill="#BAD5F3"/>
<path d="M115.23 140.096C115.458 141.097 116.073 141.967 116.941 142.515C117.809 143.063 118.859 143.245 119.86 143.019L131.687 140.338L129.977 132.78L118.15 135.461C117.149 135.688 116.279 136.304 115.731 137.173C115.184 138.042 115.003 139.093 115.23 140.096V140.096Z" fill="#E6E6E6"/>
<path d="M125.869 131.353L132.578 143.752C143.861 140.601 153.64 130.669 163.024 118.954L160.444 110.688L144.447 114.821L125.869 131.353Z" fill="#BAD5F3"/>
<path d="M38.4012 92.4612L51.2797 94.7633L80.7163 136.665L65.0782 132.981L38.4012 92.4612Z" fill="#E6E6E6"/>
<path d="M36.117 91.9482C35.9207 91.9512 35.7289 92.0069 35.5615 92.1095C35.3941 92.2121 35.2573 92.3578 35.1655 92.5314C35.0736 92.7051 35.03 92.9002 35.0393 93.0965C35.0486 93.2928 35.1104 93.483 35.2182 93.6471L62.7336 135.441C62.8872 135.675 63.1243 135.841 63.3963 135.905L76.1984 138.92C76.4143 138.971 76.6405 138.955 76.847 138.874C77.0535 138.793 77.2307 138.652 77.3549 138.468C77.4791 138.284 77.5445 138.067 77.5424 137.845C77.5404 137.623 77.4709 137.406 77.3434 137.225L47.1331 94.2217C47.0512 94.1046 46.947 94.0047 46.8265 93.9279C46.706 93.8511 46.5716 93.7988 46.4309 93.774L36.3234 91.9669C36.2552 91.9546 36.1862 91.9484 36.117 91.9482Z" fill="#3F3D56"/>
<path d="M53.2812 121.831L54.0459 129.542L66.1133 128.343C67.1347 128.241 68.0741 127.738 68.7247 126.943C69.3753 126.148 69.6838 125.127 69.5824 124.104C69.4811 123.082 68.9781 122.141 68.1841 121.49C67.3902 120.839 66.3703 120.53 65.3488 120.631L53.2812 121.831Z" fill="#E6E6E6"/>
<path d="M42.7879 120.937C42.8054 123.567 43.8603 126.083 45.7227 127.937C47.585 129.791 50.1039 130.833 52.7304 130.836H54.7147L56.1592 118.784L44.1984 114.474L42.7879 120.937Z" fill="#BAD5F3"/>
<path d="M113.079 38.4387L112.701 38.0601L113.273 37.4882L116.686 33.5002L117.092 33.8483L113.665 37.8512L113.079 38.4387Z" fill="white"/>
<path d="M475 329.929H0V331H475V329.929Z" fill="#3F3D56"/>
<path d="M181.334 329.393H293.666V192.991C293.666 185.768 286.559 179.892 277.825 179.892H197.175C188.441 179.892 181.334 185.768 181.334 192.991V329.393Z" fill="#E6E6E6"/>
<path d="M189.893 323.753H285.107V208.136C285.107 202.014 279.083 197.033 271.68 197.033H203.32C195.916 197.033 189.893 202.014 189.893 208.136V323.753Z" fill="white"/>
<path d="M180.486 169.277C177.709 169.277 175.45 171.145 175.45 173.441V185.46C175.45 187.755 177.709 189.623 180.486 189.623H294.514C297.291 189.623 299.55 187.755 299.55 185.46V173.441C299.55 171.145 297.291 169.277 294.514 169.277H180.486Z" fill="#3F3D56"/>
<path d="M203.897 308.928C202.594 308.932 201.345 309.452 200.423 310.374C199.501 311.297 198.982 312.548 198.978 313.853C198.982 315.158 199.501 316.408 200.423 317.331C201.345 318.254 202.594 318.774 203.897 318.778H213.105V308.928H203.897Z" fill="#3F3D56"/>
<path d="M221.557 308.928H212.601V318.778H221.557C222.86 318.774 224.109 318.254 225.031 317.331C225.953 316.408 226.472 315.158 226.476 313.853C226.472 312.548 225.953 311.297 225.031 310.374C224.109 309.452 222.86 308.932 221.557 308.928Z" fill="#BAD5F3"/>
<path opacity="0.2" d="M224.767 310.134C225.543 311.025 225.97 312.166 225.972 313.348C225.968 314.653 225.448 315.903 224.526 316.826C223.605 317.749 222.356 318.269 221.052 318.272H212.601V318.778H221.557C222.86 318.774 224.109 318.254 225.031 317.331C225.953 316.408 226.472 315.158 226.476 313.853C226.475 313.146 226.322 312.448 226.027 311.807C225.732 311.165 225.302 310.594 224.767 310.134Z" fill="black"/>
<path d="M245.45 234.746C244.553 233.799 243.318 233.246 242.015 233.207C240.712 233.169 239.447 233.648 238.495 234.541C237.55 235.439 236.997 236.675 236.959 237.979C236.92 239.284 237.399 240.55 238.29 241.502L244.606 248.21L251.766 241.454L245.45 234.746Z" fill="#3F3D56"/>
<path d="M257.563 247.611L251.42 241.086L244.26 247.843L250.403 254.367C251.3 255.314 252.535 255.867 253.838 255.905C255.141 255.944 256.406 255.465 257.357 254.572C258.303 253.674 258.856 252.438 258.894 251.134C258.933 249.829 258.454 248.563 257.563 247.611Z" fill="#BAD5F3"/>
<path opacity="0.2" d="M258.888 250.776C258.773 251.952 258.237 253.047 257.378 253.858C256.427 254.751 255.162 255.23 253.859 255.191C252.556 255.153 251.321 254.6 250.424 253.653L244.627 247.496L244.26 247.843L250.403 254.367C251.3 255.314 252.535 255.867 253.838 255.905C255.141 255.944 256.406 255.465 257.357 254.572C257.87 254.087 258.272 253.497 258.536 252.842C258.8 252.186 258.92 251.482 258.888 250.776Z" fill="black"/>
<path d="M219.239 250.276C218.342 249.329 217.107 248.776 215.804 248.737C214.501 248.699 213.236 249.178 212.285 250.07C211.339 250.968 210.786 252.204 210.748 253.509C210.71 254.813 211.188 256.08 212.08 257.032L218.396 263.74L225.555 256.984L219.239 250.276Z" fill="#3F3D56"/>
<path d="M231.352 263.14L225.209 256.616L218.05 263.372L224.193 269.897C225.09 270.844 226.324 271.397 227.627 271.435C228.93 271.474 230.196 270.994 231.147 270.102C232.093 269.204 232.645 267.968 232.684 266.664C232.722 265.359 232.243 264.092 231.352 263.14Z" fill="#BAD5F3"/>
<path opacity="0.2" d="M232.677 266.306C232.562 267.482 232.026 268.577 231.168 269.388C230.217 270.28 228.951 270.76 227.648 270.721C226.345 270.683 225.111 270.129 224.214 269.182L218.417 263.026L218.05 263.372L224.193 269.897C225.09 270.844 226.324 271.397 227.627 271.435C228.93 271.474 230.196 270.994 231.147 270.102C231.659 269.617 232.061 269.026 232.326 268.371C232.59 267.716 232.71 267.012 232.677 266.306Z" fill="black"/>
<path d="M245.45 264.735C244.553 263.788 243.318 263.234 242.015 263.196C240.712 263.157 239.447 263.637 238.495 264.529C237.55 265.427 236.997 266.663 236.959 267.968C236.92 269.272 237.399 270.539 238.29 271.491L244.606 278.199L251.766 271.442L245.45 264.735Z" fill="#3F3D56"/>
<path d="M257.563 277.599L251.42 271.075L244.26 277.831L250.403 284.355C251.3 285.302 252.535 285.855 253.838 285.894C255.141 285.932 256.406 285.453 257.357 284.561C258.303 283.663 258.856 282.427 258.894 281.122C258.933 279.818 258.454 278.551 257.563 277.599Z" fill="#BAD5F3"/>
<path opacity="0.2" d="M258.888 280.765C258.773 281.941 258.237 283.035 257.378 283.847C256.427 284.739 255.162 285.218 253.859 285.18C252.556 285.141 251.321 284.588 250.424 283.641L244.627 277.485L244.26 277.831L250.403 284.355C251.3 285.302 252.535 285.855 253.838 285.894C255.141 285.932 256.406 285.453 257.357 284.561C257.87 284.075 258.272 283.485 258.536 282.83C258.8 282.175 258.92 281.47 258.888 280.765Z" fill="black"/>
<path d="M261.439 295.509C262.374 294.599 262.912 293.356 262.934 292.052C262.957 290.747 262.463 289.486 261.56 288.545C260.652 287.609 259.41 287.071 258.107 287.048C256.804 287.025 255.544 287.52 254.604 288.424L247.981 294.828L254.816 301.913L261.439 295.509Z" fill="#3F3D56"/>
<path d="M248.737 307.791L255.179 301.562L248.344 294.477L241.902 300.706C240.967 301.615 240.43 302.858 240.407 304.163C240.384 305.468 240.879 306.728 241.781 307.67C242.69 308.606 243.931 309.144 245.234 309.166C246.538 309.189 247.797 308.694 248.737 307.791Z" fill="#BAD5F3"/>
<path opacity="0.2" d="M245.591 309.156C244.415 309.055 243.316 308.531 242.495 307.682C241.592 306.741 241.098 305.48 241.121 304.175C241.143 302.87 241.681 301.628 242.616 300.718L248.694 294.84L248.344 294.477L241.902 300.706C240.967 301.615 240.43 302.858 240.407 304.163C240.384 305.468 240.879 306.728 241.781 307.67C242.272 308.177 242.867 308.572 243.525 308.829C244.182 309.085 244.887 309.197 245.591 309.156Z" fill="black"/>
<path d="M226.135 279.979C227.07 279.069 227.608 277.827 227.63 276.522C227.653 275.217 227.159 273.956 226.256 273.015C225.348 272.079 224.106 271.541 222.803 271.518C221.5 271.496 220.24 271.99 219.3 272.894L212.677 279.298L219.512 286.383L226.135 279.979Z" fill="#3F3D56"/>
<path d="M213.433 292.261L219.875 286.032L213.04 278.947L206.598 285.176C205.663 286.086 205.126 287.328 205.103 288.633C205.08 289.938 205.575 291.199 206.477 292.14C207.386 293.076 208.627 293.614 209.93 293.637C211.234 293.659 212.493 293.165 213.433 292.261Z" fill="#BAD5F3"/>
<path opacity="0.2" d="M210.287 293.626C209.111 293.525 208.012 293.001 207.191 292.152C206.288 291.211 205.794 289.95 205.816 288.645C205.839 287.341 206.377 286.098 207.312 285.189L213.39 279.311L213.04 278.947L206.598 285.176C205.663 286.085 205.126 287.328 205.103 288.633C205.08 289.938 205.575 291.199 206.477 292.14C206.968 292.647 207.563 293.043 208.22 293.299C208.878 293.555 209.583 293.667 210.287 293.626Z" fill="black"/>
<path d="M276.417 261.236C277.352 260.327 277.889 259.084 277.912 257.779C277.935 256.474 277.44 255.214 276.538 254.272C275.629 253.336 274.388 252.798 273.085 252.776C271.781 252.753 270.522 253.248 269.582 254.151L262.958 260.556L269.794 267.64L276.417 261.236Z" fill="#3F3D56"/>
<path d="M263.715 273.518L270.157 267.289L263.321 260.205L256.88 266.433C255.945 267.343 255.407 268.586 255.385 269.89C255.362 271.195 255.856 272.456 256.759 273.397C257.667 274.333 258.909 274.871 260.212 274.894C261.515 274.917 262.775 274.422 263.715 273.518Z" fill="#BAD5F3"/>
<path opacity="0.2" d="M260.569 274.883C259.393 274.782 258.293 274.259 257.472 273.41C256.569 272.468 256.075 271.208 256.098 269.903C256.121 268.598 256.658 267.355 257.593 266.446L263.672 260.568L263.321 260.205L256.88 266.433C255.945 267.343 255.407 268.586 255.385 269.89C255.362 271.195 255.856 272.456 256.759 273.397C257.25 273.904 257.844 274.3 258.502 274.556C259.16 274.813 259.865 274.924 260.569 274.883Z" fill="black"/>
<path d="M265.241 300.078C264.344 299.131 263.109 298.578 261.806 298.539C260.504 298.501 259.238 298.98 258.287 299.872C257.341 300.77 256.789 302.007 256.75 303.311C256.712 304.615 257.19 305.882 258.082 306.834L264.398 313.542L271.557 306.786L265.241 300.078Z" fill="#3F3D56"/>
<path d="M277.354 312.942L271.211 306.418L264.052 313.175L270.195 319.699C271.092 320.646 272.327 321.199 273.63 321.237C274.933 321.276 276.198 320.797 277.149 319.904C278.095 319.006 278.647 317.77 278.686 316.466C278.724 315.161 278.246 313.895 277.354 312.942Z" fill="#BAD5F3"/>
<path opacity="0.2" d="M278.68 316.108C278.564 317.284 278.028 318.379 277.17 319.19C276.219 320.083 274.954 320.562 273.651 320.523C272.348 320.485 271.113 319.932 270.216 318.985L264.419 312.828L264.052 313.175L270.195 319.699C271.092 320.646 272.327 321.199 273.63 321.237C274.933 321.276 276.198 320.797 277.149 319.904C277.662 319.419 278.064 318.828 278.328 318.173C278.592 317.518 278.712 316.814 278.68 316.108Z" fill="black"/>
<path d="M230.472 299.542C229.575 298.595 228.34 298.042 227.037 298.004C225.734 297.965 224.469 298.445 223.518 299.337C222.572 300.235 222.02 301.471 221.981 302.775C221.943 304.08 222.421 305.347 223.313 306.299L229.629 313.007L236.788 306.25L230.472 299.542Z" fill="#3F3D56"/>
<path d="M242.585 312.407L236.442 305.883L229.283 312.639L235.426 319.163C236.323 320.11 237.557 320.663 238.86 320.702C240.163 320.74 241.429 320.261 242.38 319.369C243.326 318.471 243.878 317.235 243.917 315.93C243.955 314.626 243.477 313.359 242.585 312.407Z" fill="#BAD5F3"/>
<path opacity="0.2" d="M243.91 315.573C243.795 316.749 243.259 317.843 242.401 318.655C241.45 319.547 240.185 320.026 238.882 319.988C237.579 319.949 236.344 319.396 235.447 318.449L229.65 312.293L229.283 312.639L235.426 319.163C236.323 320.11 237.558 320.663 238.86 320.702C240.163 320.74 241.429 320.261 242.38 319.369C242.893 318.883 243.295 318.293 243.559 317.638C243.823 316.983 243.943 316.278 243.91 315.573Z" fill="black"/>
<path d="M240.259 281.874C240.259 283.512 239.695 285.099 238.66 286.367C237.626 287.636 236.186 288.507 234.583 288.835C233.647 289.024 232.682 289.024 231.745 288.835C230.143 288.507 228.703 287.635 227.669 286.367C226.635 285.099 226.07 283.512 226.07 281.874C226.07 280.237 226.635 278.65 227.669 277.382C228.703 276.113 230.143 275.242 231.745 274.914C232.682 274.724 233.647 274.724 234.583 274.914C236.186 275.241 237.626 276.113 238.66 277.381C239.695 278.65 240.259 280.237 240.259 281.874Z" fill="#BAD5F3"/>
<path opacity="0.2" d="M234.583 274.914V288.835C233.647 289.024 232.682 289.024 231.746 288.835V274.914C232.682 274.724 233.647 274.724 234.583 274.914Z" fill="black"/>
<path d="M243.468 253.492C243.469 255.13 242.904 256.717 241.87 257.985C240.836 259.254 239.395 260.125 237.793 260.453C236.856 260.642 235.891 260.642 234.955 260.453C233.353 260.125 231.913 259.253 230.878 257.985C229.844 256.717 229.279 255.13 229.279 253.492C229.279 251.855 229.844 250.268 230.878 249C231.913 247.731 233.353 246.86 234.955 246.532C235.891 246.343 236.856 246.343 237.793 246.532C239.395 246.859 240.836 247.731 241.87 248.999C242.904 250.268 243.469 251.855 243.468 253.492Z" fill="#BAD5F3"/>
<path opacity="0.2" d="M237.793 246.532V260.453C236.856 260.642 235.891 260.642 234.955 260.453V246.532C235.891 246.343 236.856 246.343 237.793 246.532Z" fill="black"/>
<path d="M243.468 294.191C243.469 295.828 242.904 297.415 241.87 298.684C240.836 299.952 239.395 300.824 237.793 301.151C236.856 301.341 235.891 301.341 234.955 301.151C233.353 300.824 231.913 299.952 230.878 298.684C229.844 297.415 229.279 295.828 229.279 294.191C229.279 292.554 229.844 290.967 230.878 289.698C231.913 288.43 233.353 287.558 234.955 287.231C235.891 287.041 236.856 287.041 237.793 287.231C239.395 287.558 240.836 288.43 241.87 289.698C242.904 290.966 243.469 292.554 243.468 294.191Z" fill="#BAD5F3"/>
<path opacity="0.2" d="M237.793 287.231V301.151C236.856 301.341 235.891 301.341 234.955 301.151V287.231C235.891 287.041 236.856 287.041 237.793 287.231Z" fill="black"/>
<path d="M261.121 314.005C261.121 315.642 260.556 317.229 259.522 318.498C258.488 319.766 257.047 320.638 255.445 320.965C254.508 321.155 253.543 321.155 252.607 320.965C251.005 320.637 249.565 319.766 248.53 318.497C247.496 317.229 246.931 315.642 246.931 314.005C246.931 312.367 247.496 310.78 248.53 309.512C249.565 308.244 251.005 307.372 252.607 307.044C253.543 306.855 254.508 306.855 255.445 307.044C257.047 307.372 258.488 308.243 259.522 309.512C260.556 310.78 261.121 312.367 261.121 314.005Z" fill="#BAD5F3"/>
<path opacity="0.2" d="M255.445 307.044V320.965C254.508 321.155 253.543 321.155 252.607 320.965V307.044C253.543 306.855 254.508 306.855 255.445 307.044Z" fill="black"/>
<path d="M276.714 277.55C277.892 278.686 278.641 280.194 278.836 281.82C279.03 283.446 278.658 285.089 277.781 286.471C277.268 287.278 276.598 287.973 275.812 288.517C274.464 289.444 272.838 289.877 271.208 289.742C269.578 289.608 268.045 288.914 266.867 287.777C265.69 286.641 264.94 285.133 264.746 283.507C264.551 281.881 264.924 280.238 265.8 278.856C266.314 278.049 266.983 277.354 267.769 276.81C269.117 275.883 270.743 275.449 272.373 275.584C274.003 275.719 275.537 276.413 276.714 277.55Z" fill="#BAD5F3"/>
<path opacity="0.2" d="M267.769 276.81L277.781 286.471C277.268 287.278 276.598 287.973 275.812 288.517L265.8 278.856C266.314 278.049 266.983 277.354 267.769 276.81Z" fill="black"/>
<path d="M278.854 293.079C280.031 294.215 280.781 295.724 280.976 297.35C281.17 298.975 280.797 300.618 279.921 302.001C279.407 302.807 278.738 303.503 277.951 304.046C276.604 304.974 274.977 305.407 273.347 305.272C271.718 305.137 270.184 304.443 269.007 303.307C267.829 302.171 267.08 300.662 266.885 299.037C266.691 297.411 267.063 295.768 267.94 294.386C268.453 293.579 269.123 292.884 269.909 292.34C271.257 291.412 272.883 290.979 274.513 291.114C276.143 291.248 277.676 291.943 278.854 293.079Z" fill="#BAD5F3"/>
<path opacity="0.2" d="M269.909 292.34L279.921 302.001C279.407 302.807 278.738 303.503 277.951 304.046L267.94 294.386C268.453 293.579 269.123 292.884 269.909 292.34Z" fill="black"/>
<path d="M215.199 296.828C216.377 297.964 217.127 299.472 217.321 301.098C217.516 302.724 217.143 304.367 216.267 305.749C215.753 306.556 215.083 307.251 214.297 307.795C212.949 308.722 211.323 309.155 209.693 309.021C208.063 308.886 206.53 308.192 205.352 307.056C204.175 305.919 203.426 304.411 203.231 302.785C203.037 301.159 203.409 299.517 204.285 298.134C204.799 297.328 205.469 296.632 206.255 296.089C207.602 295.161 209.229 294.728 210.859 294.862C212.489 294.997 214.022 295.691 215.199 296.828Z" fill="#BAD5F3"/>
<path opacity="0.2" d="M206.255 296.089L216.267 305.749C215.753 306.556 215.083 307.251 214.297 307.795L204.285 298.134C204.799 297.328 205.469 296.632 206.255 296.089Z" fill="black"/>
<path opacity="0.2" d="M192.3 169.277H189.626V189.091H192.3V169.277Z" fill="black"/>
<path opacity="0.2" d="M207.812 169.277H205.138V189.091H207.812V169.277Z" fill="black"/>
<path opacity="0.2" d="M223.325 169.277H220.65V189.091H223.325V169.277Z" fill="black"/>
<path opacity="0.2" d="M238.837 169.277H236.163V189.091H238.837V169.277Z" fill="black"/>
<path opacity="0.2" d="M254.35 169.277H251.675V189.091H254.35V169.277Z" fill="black"/>
<path opacity="0.2" d="M269.862 169.277H267.188V189.091H269.862V169.277Z" fill="black"/>
<path opacity="0.2" d="M285.374 169.277H282.7V189.091H285.374V169.277Z" fill="black"/>
</svg>
